<svg id="svg" version="1.1" xmlns="http://www.w3.org/2000/svg" xmlns:xlink="http://www.w3.org/1999/xlink" width="400" height="297.73584905660374" viewBox="0, 0, 400,297.73584905660374"><g id="svgg"><path id="path0" d="M229.486 125.128 C 226.865 126.604,224.418 127.971,224.047 128.165 C 223.676 128.359,220.714 130.011,217.463 131.835 C 214.213 133.659,211.266 135.243,210.915 135.355 C 210.563 135.466,210.276 135.662,210.276 135.790 C 210.276 135.918,209.706 136.274,209.010 136.581 C 208.313 136.888,207.677 137.219,207.595 137.316 C 207.513 137.413,206.243 138.154,204.773 138.962 C 203.302 139.770,201.694 140.662,201.199 140.943 C 200.703 141.224,199.705 141.743,198.980 142.097 C 198.255 142.450,197.518 142.868,197.342 143.026 C 197.166 143.183,196.351 143.669,195.532 144.107 L 194.043 144.902 193.967 167.346 C 193.896 188.205,193.926 189.776,194.388 189.599 C 194.817 189.434,207.548 182.416,208.786 181.662 C 209.032 181.512,209.970 180.985,210.871 180.491 C 211.772 179.996,213.448 179.055,214.594 178.399 C 215.741 177.742,217.148 176.993,217.722 176.734 C 218.295 176.475,218.965 176.092,219.211 175.885 C 219.456 175.677,221.132 174.732,222.934 173.786 C 224.736 172.839,226.411 171.897,226.657 171.691 C 226.902 171.486,227.573 171.106,228.146 170.848 C 229.302 170.326,232.758 168.380,233.762 167.684 L 234.407 167.238 234.516 144.825 C 234.576 132.498,234.541 122.420,234.438 122.429 C 234.336 122.437,232.107 123.652,229.486 125.128 M325.689 177.546 C 324.870 178.023,323.663 178.688,323.008 179.024 C 322.353 179.360,321.147 180.025,320.328 180.503 C 319.509 180.981,318.369 181.609,317.796 181.900 C 317.223 182.190,316.687 182.494,316.605 182.576 C 316.413 182.768,315.010 183.551,310.350 186.067 C 309.613 186.465,308.206 187.247,307.223 187.805 C 306.240 188.362,305.101 188.986,304.691 189.191 C 304.281 189.396,303.879 189.633,303.797 189.718 C 303.715 189.804,303.179 190.126,302.606 190.434 C 302.033 190.743,300.961 191.319,300.223 191.714 C 298.324 192.733,296.097 193.972,290.897 196.902 C 289.616 197.623,288.209 198.401,287.769 198.631 C 287.329 198.861,286.894 199.164,286.802 199.303 C 286.665 199.511,286.641 243.867,286.778 244.176 C 286.801 244.229,287.174 243.995,287.605 243.655 C 288.037 243.316,288.529 243.038,288.699 243.038 C 288.869 243.038,290.492 242.184,292.307 241.140 C 294.122 240.097,296.746 238.617,298.138 237.852 C 299.531 237.088,300.871 236.336,301.117 236.181 C 301.363 236.027,304.512 234.274,308.116 232.285 C 311.720 230.297,315.540 228.169,316.605 227.558 C 317.669 226.946,319.345 226.011,320.328 225.479 C 321.310 224.948,323.208 223.905,324.544 223.161 L 326.974 221.810 327.094 217.606 C 327.224 213.051,327.361 176.601,327.247 176.649 C 327.209 176.665,326.508 177.069,325.689 177.546 M145.048 179.529 C 144.475 179.761,143.805 180.126,143.559 180.340 C 143.313 180.554,142.308 181.168,141.325 181.705 C 140.343 182.243,138.868 183.056,138.049 183.513 C 137.230 183.970,135.990 184.622,135.294 184.963 C 134.598 185.304,134.028 185.689,134.028 185.819 C 134.028 185.949,133.492 186.232,132.837 186.448 C 132.182 186.665,131.646 186.941,131.646 187.062 C 131.646 187.184,131.277 187.432,130.827 187.614 C 130.376 187.796,129.203 188.409,128.220 188.976 C 127.238 189.542,125.964 190.226,125.391 190.494 C 124.818 190.763,124.281 191.086,124.200 191.213 C 124.118 191.339,123.380 191.772,122.561 192.175 C 120.689 193.096,119.033 193.996,118.839 194.198 C 118.757 194.283,118.354 194.521,117.945 194.726 C 117.535 194.930,116.396 195.555,115.413 196.114 C 114.430 196.672,113.023 197.451,112.286 197.846 C 109.148 199.523,107.322 200.558,106.586 201.077 L 105.800 201.631 105.760 223.973 C 105.738 236.261,105.806 246.314,105.911 246.314 C 106.107 246.314,109.498 244.511,112.137 243.004 C 112.956 242.536,114.095 241.937,114.669 241.672 C 115.242 241.408,115.912 241.023,116.158 240.816 C 116.404 240.609,117.945 239.731,119.583 238.864 C 121.221 237.998,122.897 237.056,123.306 236.772 C 123.716 236.488,124.520 236.034,125.093 235.764 C 126.148 235.266,127.304 234.629,131.348 232.318 C 132.576 231.616,134.185 230.717,134.922 230.320 C 136.920 229.244,139.057 228.057,144.304 225.105 L 146.091 224.100 146.240 207.433 C 146.322 198.267,146.322 188.143,146.240 184.937 L 146.091 179.107 145.048 179.529 " stroke="none" fill="#fcfcfc" fill-rule="evenodd"></path><path id="path1" d="M192.413 50.318 C 192.008 50.630,191.573 50.820,191.445 50.741 C 191.318 50.662,191.214 50.731,191.214 50.893 C 191.214 51.056,190.913 51.284,190.545 51.401 C 190.177 51.518,189.741 51.778,189.577 51.980 C 189.412 52.182,188.641 52.583,187.863 52.871 C 187.085 53.159,186.448 53.502,186.448 53.633 C 186.448 53.763,185.979 54.040,185.406 54.248 C 184.832 54.455,184.363 54.740,184.363 54.880 C 184.363 55.021,184.229 55.053,184.066 54.952 C 183.902 54.850,183.768 54.884,183.768 55.027 C 183.768 55.170,183.299 55.471,182.725 55.696 C 182.152 55.921,181.683 56.196,181.683 56.307 C 181.683 56.418,181.080 56.739,180.343 57.021 C 179.605 57.302,179.002 57.645,179.002 57.783 C 179.002 57.920,178.533 58.188,177.960 58.377 C 177.386 58.566,176.917 58.840,176.917 58.986 C 176.917 59.132,176.716 59.174,176.471 59.080 C 176.225 58.986,176.024 59.064,176.024 59.254 C 176.024 59.444,175.622 59.739,175.130 59.911 C 174.639 60.082,174.237 60.339,174.237 60.481 C 174.237 60.624,174.014 60.655,173.741 60.551 C 173.446 60.437,173.320 60.481,173.430 60.659 C 173.531 60.823,173.151 61.138,172.585 61.360 C 172.019 61.583,171.556 61.852,171.556 61.959 C 171.556 62.066,171.006 62.335,170.333 62.557 C 169.661 62.779,169.047 63.126,168.969 63.328 C 168.892 63.530,168.169 63.932,167.363 64.222 C 166.557 64.512,165.897 64.864,165.897 65.004 C 165.897 65.144,165.495 65.398,165.004 65.570 C 164.512 65.741,164.110 66.016,164.110 66.182 C 164.110 66.347,163.909 66.405,163.663 66.311 C 163.418 66.216,163.217 66.253,163.217 66.392 C 163.217 66.530,162.815 66.811,162.323 67.014 C 161.832 67.218,161.430 67.481,161.430 67.598 C 161.430 67.716,160.887 67.991,160.224 68.210 C 159.560 68.429,158.924 68.760,158.809 68.946 C 158.694 69.131,158.137 69.470,157.570 69.699 C 157.004 69.929,156.314 70.343,156.037 70.620 C 155.760 70.897,155.117 71.215,154.607 71.327 C 154.097 71.439,153.742 71.629,153.816 71.749 C 153.891 71.870,153.356 72.214,152.627 72.515 C 151.899 72.815,151.303 73.141,151.302 73.239 C 151.301 73.337,150.698 73.666,149.962 73.968 C 149.225 74.271,148.622 74.618,148.622 74.740 C 148.622 74.861,148.093 75.135,147.447 75.349 C 146.800 75.562,146.211 75.892,146.138 76.083 C 146.065 76.273,145.455 76.610,144.782 76.832 C 144.110 77.054,143.559 77.357,143.559 77.504 C 143.559 77.651,143.439 77.697,143.293 77.607 C 143.146 77.516,142.954 77.630,142.866 77.859 C 142.778 78.088,142.295 78.366,141.792 78.477 C 141.290 78.587,140.879 78.775,140.879 78.894 C 140.879 79.013,140.343 79.348,139.687 79.637 C 139.032 79.926,138.496 80.265,138.496 80.391 C 138.496 80.517,137.946 80.801,137.273 81.023 C 136.600 81.245,135.990 81.582,135.917 81.773 C 135.844 81.963,135.255 82.294,134.608 82.507 C 133.962 82.720,133.433 83.030,133.433 83.195 C 133.433 83.360,133.350 83.412,133.248 83.310 C 133.147 83.209,132.883 83.287,132.663 83.484 C 131.707 84.338,131.463 84.476,131.118 84.361 C 130.917 84.294,130.752 84.371,130.752 84.533 C 130.752 84.694,130.350 84.966,129.859 85.138 C 129.367 85.309,128.965 85.586,128.965 85.753 C 128.965 85.920,128.764 85.980,128.518 85.886 C 128.273 85.792,128.071 85.852,128.071 86.021 C 128.071 86.190,127.614 86.478,127.055 86.663 C 126.497 86.847,125.974 87.167,125.895 87.374 C 125.816 87.581,125.201 87.915,124.528 88.116 C 123.856 88.318,123.306 88.581,123.306 88.702 C 123.306 88.822,122.704 89.185,121.969 89.509 C 121.233 89.832,120.630 90.184,120.628 90.291 C 120.627 90.398,120.223 90.625,119.732 90.797 C 119.241 90.968,118.838 91.245,118.838 91.412 C 118.838 91.579,118.637 91.639,118.392 91.545 C 118.146 91.450,117.945 91.516,117.945 91.691 C 117.945 91.866,117.409 92.169,116.754 92.366 C 116.098 92.562,115.562 92.842,115.562 92.989 C 115.562 93.135,115.092 93.451,114.517 93.691 C 112.049 94.723,112.286 91.502,112.286 123.968 C 112.286 140.493,112.398 152.792,112.550 152.792 C 113.120 152.792,115.860 151.795,115.860 151.588 C 115.860 151.467,116.229 151.280,116.679 151.172 C 117.520 150.972,119.862 149.940,121.960 148.846 C 122.613 148.506,123.618 148.176,124.194 148.113 C 124.770 148.051,125.430 147.813,125.660 147.584 C 126.056 147.191,127.178 148.064,127.178 148.765 C 127.178 148.873,127.557 149.522,128.021 150.207 C 128.485 150.892,128.950 151.687,129.054 151.973 C 129.159 152.260,129.382 152.494,129.551 152.494 C 129.720 152.494,129.862 152.662,129.867 152.867 C 129.871 153.071,130.273 153.765,130.760 154.409 C 131.247 155.052,131.646 155.749,131.646 155.958 C 131.646 156.166,131.813 156.444,132.018 156.575 C 132.223 156.706,132.566 157.148,132.780 157.558 C 132.994 157.967,133.431 158.620,133.750 159.009 L 134.331 159.715 136.488 158.590 C 140.538 156.478,141.296 156.059,141.460 155.840 C 141.550 155.720,142.427 155.208,143.410 154.701 C 144.393 154.195,146.001 153.332,146.984 152.782 C 147.967 152.233,149.308 151.502,149.963 151.158 C 150.618 150.815,151.589 150.271,152.120 149.950 L 153.086 149.367 153.088 135.751 C 153.090 122.761,153.116 122.122,153.647 121.838 C 153.953 121.674,154.309 121.636,154.439 121.753 C 154.569 121.870,154.578 121.798,154.461 121.593 C 154.261 121.247,154.630 121.108,155.673 121.137 C 155.864 121.143,155.957 120.980,155.879 120.777 C 155.801 120.573,155.979 120.329,156.275 120.235 C 156.571 120.140,157.617 119.584,158.600 118.999 C 159.583 118.414,160.856 117.703,161.430 117.419 C 162.003 117.135,162.539 116.826,162.621 116.732 C 162.703 116.638,163.842 115.981,165.153 115.270 C 166.463 114.560,168.138 113.641,168.876 113.229 C 172.510 111.195,173.272 110.782,174.237 110.328 C 174.810 110.057,175.346 109.750,175.428 109.643 C 175.510 109.537,176.113 109.185,176.768 108.860 C 177.424 108.536,178.161 108.114,178.407 107.924 C 178.652 107.733,179.657 107.157,180.640 106.643 C 181.623 106.130,183.232 105.252,184.214 104.693 C 185.197 104.134,186.471 103.454,187.044 103.182 C 187.617 102.910,188.153 102.598,188.235 102.487 C 188.317 102.377,189.389 101.770,190.618 101.139 C 191.847 100.508,193.086 99.789,193.373 99.540 C 193.862 99.117,193.894 97.543,193.894 74.414 C 193.894 47.972,193.965 49.126,192.413 50.318 M198.958 52.572 C 198.958 52.646,199.494 52.979,200.149 53.313 C 200.804 53.648,201.340 53.800,201.340 53.652 C 201.340 53.504,201.106 53.302,200.819 53.204 C 200.532 53.106,199.996 52.893,199.628 52.732 C 199.259 52.571,198.958 52.499,198.958 52.572 M202.100 54.448 C 202.608 54.881,204.021 55.392,204.021 55.142 C 204.021 55.008,203.679 54.743,203.262 54.553 C 202.380 54.151,201.677 54.088,202.100 54.448 M212.063 59.852 C 212.063 60.157,213.721 60.853,214.119 60.715 C 214.283 60.658,213.888 60.386,213.240 60.111 C 212.592 59.837,212.063 59.720,212.063 59.852 M221.618 65.338 C 221.687 65.399,222.211 65.674,222.785 65.949 L 223.827 66.448 223.124 65.838 C 222.737 65.502,222.212 65.227,221.958 65.227 C 221.703 65.227,221.550 65.277,221.618 65.338 M224.870 66.985 C 224.870 67.104,225.333 67.422,225.898 67.692 C 226.617 68.035,226.884 68.070,226.784 67.810 C 226.625 67.397,224.870 66.640,224.870 66.985 M229.096 69.120 C 229.217 69.481,230.529 70.499,230.529 70.232 C 230.529 70.159,230.178 69.795,229.750 69.423 C 229.322 69.051,229.028 68.914,229.096 69.120 M232.018 71.027 C 232.018 71.105,232.420 71.377,232.911 71.631 C 233.403 71.885,233.805 71.977,233.805 71.835 C 233.805 71.693,233.464 71.422,233.046 71.232 C 232.215 70.853,232.018 70.814,232.018 71.027 M234.996 72.651 C 234.996 72.849,236.292 73.567,236.648 73.567 C 237.127 73.567,236.635 73.045,235.890 72.764 C 235.398 72.579,234.996 72.528,234.996 72.651 M238.570 74.599 C 238.570 74.675,238.835 74.879,239.159 75.052 C 239.640 75.309,239.716 75.284,239.574 74.914 C 239.420 74.512,238.570 74.245,238.570 74.599 M241.851 76.156 C 241.845 76.637,243.061 77.460,243.435 77.228 C 243.600 77.126,243.415 76.924,243.023 76.779 C 242.631 76.634,242.208 76.355,242.083 76.158 C 241.908 75.883,241.855 75.882,241.851 76.156 M245.269 78.328 C 245.540 78.765,246.612 79.291,246.612 78.986 C 246.612 78.843,246.268 78.569,245.848 78.378 C 245.412 78.179,245.164 78.158,245.269 78.328 M251.378 81.733 C 251.378 81.964,253.492 83.167,253.640 83.020 C 253.720 82.939,253.303 82.589,252.713 82.241 C 251.631 81.602,251.378 81.506,251.378 81.733 M255.674 84.253 C 255.892 84.606,257.036 84.890,257.036 84.591 C 257.036 84.344,256.311 83.991,255.803 83.991 C 255.643 83.991,255.585 84.109,255.674 84.253 M258.892 85.834 C 259.040 86.279,259.717 86.524,259.717 86.133 C 259.717 85.973,259.505 85.760,259.245 85.661 C 258.955 85.550,258.819 85.616,258.892 85.834 M262.695 88.126 C 262.695 88.271,262.964 88.459,263.291 88.545 C 263.995 88.729,264.100 88.306,263.416 88.044 C 262.790 87.804,262.695 87.815,262.695 88.126 M265.674 89.649 C 265.674 90.010,266.509 90.403,266.755 90.158 C 266.844 90.069,266.637 89.847,266.295 89.664 C 265.864 89.433,265.674 89.429,265.674 89.649 M213.403 90.533 C 213.075 90.671,212.420 90.934,211.947 91.119 C 211.474 91.303,211.144 91.511,211.214 91.581 C 211.352 91.719,213.183 91.127,213.757 90.758 C 213.983 90.613,214.444 91.017,215.037 91.878 C 215.546 92.618,216.025 93.224,216.100 93.224 C 216.255 93.224,215.586 91.965,215.309 91.735 C 215.211 91.653,214.971 91.284,214.777 90.916 C 214.394 90.187,214.294 90.160,213.403 90.533 M208.712 92.501 C 207.557 93.127,207.688 93.344,208.861 92.747 C 209.983 92.176,210.182 92.028,209.804 92.045 C 209.654 92.051,209.162 92.257,208.712 92.501 M205.436 93.990 C 204.281 94.617,204.412 94.833,205.585 94.236 C 206.707 93.665,206.906 93.517,206.528 93.534 C 206.378 93.540,205.886 93.746,205.436 93.990 M216.246 93.671 C 216.246 93.835,216.508 94.304,216.828 94.713 C 217.148 95.123,217.410 95.324,217.410 95.160 C 217.410 94.996,217.148 94.527,216.828 94.118 C 216.508 93.708,216.246 93.507,216.246 93.671 M272.549 93.631 C 273.150 94.156,274.127 94.470,273.754 94.017 C 273.529 93.745,273.138 93.522,272.885 93.522 C 272.632 93.522,272.481 93.571,272.549 93.631 M202.234 95.458 C 201.824 95.692,201.623 95.884,201.787 95.884 C 201.951 95.884,202.420 95.692,202.829 95.458 C 203.239 95.224,203.440 95.032,203.276 95.032 C 203.112 95.032,202.643 95.224,202.234 95.458 M218.019 96.500 C 218.369 96.992,218.723 97.394,218.805 97.394 C 218.886 97.394,218.667 96.992,218.317 96.500 C 217.967 96.009,217.614 95.607,217.532 95.607 C 217.450 95.607,217.669 96.009,218.019 96.500 M199.295 96.689 C 198.744 96.929,198.363 97.196,198.448 97.282 C 198.613 97.447,200.447 96.586,200.447 96.344 C 200.447 96.175,200.531 96.150,199.295 96.689 M196.054 98.164 C 195.521 98.396,195.086 98.647,195.086 98.720 C 195.086 98.939,196.861 98.249,197.040 97.960 C 197.238 97.639,197.267 97.633,196.054 98.164 M218.914 97.857 C 218.916 98.159,220.373 100.037,220.391 99.760 C 220.397 99.669,220.067 99.140,219.657 98.585 C 219.248 98.030,218.914 97.703,218.914 97.857 M221.035 101.195 C 221.915 102.775,223.339 104.561,222.754 103.351 C 222.405 102.629,221.169 100.830,220.605 100.223 C 220.453 100.060,220.646 100.497,221.035 101.195 M223.399 104.878 C 223.899 105.817,225.821 108.712,225.945 108.712 C 226.097 108.712,225.681 107.687,225.461 107.520 C 225.353 107.439,224.895 106.735,224.443 105.957 C 223.606 104.514,222.716 103.595,223.399 104.878 M226.256 109.382 C 227.167 110.857,228.786 113.179,228.903 113.179 C 229.070 113.179,228.427 112.009,227.997 111.531 C 227.833 111.349,227.434 110.707,227.110 110.105 C 226.786 109.502,226.410 109.010,226.274 109.010 C 226.137 109.010,226.129 109.177,226.256 109.382 M229.039 113.569 C 229.039 113.685,229.442 114.335,229.933 115.014 C 230.424 115.692,230.827 116.414,230.827 116.617 C 230.827 116.821,231.029 117.066,231.277 117.161 C 231.547 117.264,231.294 116.646,230.650 115.629 C 229.507 113.822,229.039 113.224,229.039 113.569 M231.731 117.796 C 231.727 117.960,232.064 118.496,232.482 118.987 C 232.899 119.479,233.109 119.613,232.949 119.285 C 232.517 118.403,231.740 117.454,231.731 117.796 M233.772 120.946 C 234.261 121.796,234.312 122.094,234.021 122.421 C 233.714 122.766,233.737 122.769,234.171 122.441 C 234.716 122.029,234.611 121.633,233.652 120.477 C 233.352 120.115,233.399 120.300,233.772 120.946 M221.519 129.135 C 220.406 129.739,220.473 129.991,221.593 129.412 C 222.085 129.158,222.487 128.886,222.487 128.808 C 222.487 128.617,222.455 128.628,221.519 129.135 M216.754 131.816 C 215.640 132.420,215.708 132.672,216.828 132.092 C 217.319 131.838,217.722 131.567,217.722 131.489 C 217.722 131.297,217.690 131.308,216.754 131.816 M209.308 135.986 C 208.194 136.590,208.262 136.841,209.382 136.262 C 209.873 136.008,210.276 135.736,210.276 135.659 C 210.276 135.467,210.244 135.478,209.308 135.986 M196.500 143.134 C 195.387 143.738,195.455 143.990,196.575 143.410 C 197.066 143.156,197.468 142.885,197.468 142.807 C 197.468 142.615,197.436 142.626,196.500 143.134 M193.000 143.799 C 193.417 144.648,194.117 144.946,194.584 144.475 C 194.856 144.200,194.809 144.168,194.377 144.333 C 193.979 144.484,193.651 144.339,193.240 143.829 C 192.670 143.121,192.667 143.121,193.000 143.799 M122.561 148.920 C 122.070 149.246,121.775 149.513,121.906 149.514 C 122.233 149.517,123.902 148.641,123.902 148.466 C 123.902 148.183,123.436 148.341,122.561 148.920 M120.923 149.733 C 120.678 149.827,120.410 149.997,120.328 150.112 C 120.176 150.325,115.391 153.001,113.010 154.204 C 112.284 154.571,111.690 154.941,111.690 155.027 C 111.690 155.254,113.822 154.328,114.360 153.867 C 114.612 153.651,115.220 153.274,115.711 153.029 C 117.949 151.911,121.232 150.037,121.385 149.789 C 121.571 149.489,121.566 149.488,120.923 149.733 M235.294 149.828 C 236.327 150.530,236.916 150.734,236.188 150.138 C 235.778 149.803,235.309 149.528,235.145 149.527 C 234.981 149.526,235.048 149.662,235.294 149.828 M237.975 151.318 C 239.008 152.019,239.596 152.223,238.868 151.628 C 238.459 151.293,237.990 151.018,237.826 151.016 C 237.662 151.015,237.729 151.151,237.975 151.318 M243.634 154.415 C 243.634 154.497,244.036 154.772,244.527 155.026 C 245.019 155.280,245.421 155.421,245.421 155.339 C 245.421 155.257,245.019 154.982,244.527 154.728 C 244.036 154.474,243.634 154.333,243.634 154.415 M110.035 155.910 C 109.717 156.151,109.598 156.352,109.772 156.357 C 109.945 156.362,110.347 156.170,110.665 155.929 C 110.983 155.689,111.102 155.488,110.928 155.482 C 110.755 155.477,110.353 155.670,110.035 155.910 M107.669 157.260 C 107.178 157.585,106.929 157.853,107.115 157.854 C 107.441 157.855,109.018 156.692,108.712 156.676 C 108.630 156.672,108.161 156.934,107.669 157.260 M104.175 159.150 C 102.908 159.852,101.769 160.541,101.643 160.681 C 101.368 160.988,106.059 158.493,106.463 158.118 C 106.970 157.648,106.515 157.853,104.175 159.150 M250.782 158.466 C 251.878 159.210,252.430 159.387,251.717 158.766 C 251.330 158.429,250.861 158.155,250.674 158.158 C 250.488 158.160,250.536 158.299,250.782 158.466 M134.326 160.077 C 134.326 160.196,134.594 160.634,134.922 161.051 C 135.249 161.467,135.517 161.710,135.517 161.591 C 135.517 161.472,135.249 161.034,134.922 160.617 C 134.594 160.201,134.326 159.958,134.326 160.077 M273.939 160.556 C 273.325 160.881,272.822 161.213,272.822 161.294 C 272.822 161.375,273.358 161.168,274.013 160.834 C 274.669 160.500,275.205 160.162,275.205 160.083 C 275.205 159.888,275.203 159.889,273.939 160.556 M100.298 161.302 C 99.847 161.547,99.479 161.797,99.479 161.858 C 99.479 162.113,100.677 161.631,100.995 161.249 C 101.421 160.735,101.330 160.742,100.298 161.302 M97.617 162.791 C 97.167 163.036,96.798 163.298,96.798 163.375 C 96.798 163.663,97.269 163.483,97.990 162.919 C 98.875 162.226,98.742 162.181,97.617 162.791 M269.546 162.919 C 268.972 163.233,268.668 163.495,268.868 163.502 C 269.069 163.509,269.672 163.247,270.209 162.920 C 271.450 162.163,270.928 162.162,269.546 162.919 M94.355 164.649 C 91.657 166.164,91.367 166.560,93.969 165.176 C 95.827 164.188,96.868 163.503,96.485 163.521 C 96.412 163.524,95.453 164.032,94.355 164.649 M137.013 164.293 C 137.022 164.641,138.183 166.121,138.191 165.795 C 138.195 165.657,137.930 165.204,137.602 164.787 C 137.275 164.371,137.010 164.148,137.013 164.293 M263.784 165.674 C 263.860 165.797,264.174 165.897,264.483 165.897 C 264.791 165.897,265.105 165.797,265.181 165.674 C 265.257 165.551,264.943 165.450,264.483 165.450 C 264.022 165.450,263.708 165.551,263.784 165.674 M90.171 166.961 C 89.721 167.206,89.352 167.456,89.352 167.517 C 89.352 167.772,90.551 167.290,90.868 166.908 C 91.294 166.394,91.203 166.401,90.171 166.961 M87.267 168.578 C 86.858 168.898,86.675 169.163,86.862 169.167 C 87.049 169.171,87.518 168.910,87.904 168.588 C 88.819 167.825,88.241 167.816,87.267 168.578 " stroke="none" fill="#b4d4cc" fill-rule="evenodd"></path><path id="path2" d="M213.686 90.781 C 213.530 90.911,212.867 91.190,212.211 91.400 C 211.556 91.610,208.742 92.793,205.957 94.030 C 201.105 96.184,200.015 96.674,196.221 98.407 C 195.289 98.833,194.362 99.181,194.160 99.181 C 193.958 99.181,193.581 99.363,193.322 99.586 C 193.063 99.809,191.847 100.508,190.618 101.139 C 189.389 101.770,188.317 102.377,188.235 102.487 C 188.153 102.598,187.617 102.910,187.044 103.182 C 186.471 103.454,185.197 104.134,184.214 104.693 C 183.232 105.252,181.623 106.130,180.640 106.643 C 179.657 107.157,178.652 107.733,178.407 107.924 C 178.161 108.114,177.424 108.536,176.768 108.860 C 176.113 109.185,175.510 109.537,175.428 109.643 C 175.346 109.750,174.810 110.057,174.237 110.328 C 173.272 110.782,172.510 111.195,168.876 113.229 C 168.138 113.641,166.463 114.560,165.153 115.270 C 163.842 115.981,162.703 116.638,162.621 116.732 C 162.539 116.826,162.003 117.135,161.430 117.419 C 160.856 117.703,159.583 118.411,158.600 118.993 C 157.617 119.575,156.612 120.139,156.366 120.247 C 156.121 120.355,155.742 120.618,155.526 120.832 C 155.310 121.046,154.907 121.232,154.632 121.245 C 154.358 121.258,154.284 121.330,154.468 121.406 C 154.653 121.482,155.524 121.219,156.404 120.821 C 157.284 120.423,161.087 118.730,164.855 117.059 C 168.622 115.389,172.094 113.832,172.570 113.601 C 173.581 113.108,173.939 113.072,173.939 113.461 C 173.939 113.616,174.723 114.923,175.682 116.365 C 177.311 118.815,178.420 120.528,181.237 124.944 C 183.283 128.153,185.051 130.877,185.907 132.141 C 186.368 132.823,186.746 133.449,186.746 133.532 C 186.746 133.676,189.157 137.419,189.655 138.049 C 189.785 138.213,190.339 139.084,190.885 139.985 C 192.850 143.222,193.701 144.453,193.976 144.453 C 194.191 144.453,200.600 141.014,203.425 139.383 C 203.671 139.241,208.094 136.767,213.254 133.885 C 218.414 131.003,222.837 128.516,223.083 128.358 C 223.328 128.199,224.314 127.673,225.274 127.188 C 226.233 126.702,227.171 126.184,227.358 126.036 C 227.773 125.709,230.727 124.077,232.664 123.104 C 234.566 122.149,234.563 122.170,233.110 119.998 C 232.409 118.951,231.747 117.859,231.638 117.573 C 231.530 117.286,231.303 117.051,231.134 117.051 C 230.965 117.051,230.827 116.870,230.827 116.649 C 230.827 116.428,230.424 115.692,229.933 115.014 C 229.442 114.335,229.039 113.735,229.039 113.679 C 229.039 113.623,227.781 111.645,226.243 109.283 C 224.705 106.921,222.937 104.185,222.315 103.202 C 221.693 102.219,220.673 100.646,220.049 99.706 C 219.424 98.765,218.913 97.934,218.913 97.858 C 218.913 97.782,218.310 96.857,217.573 95.803 C 216.835 94.748,216.232 93.804,216.232 93.705 C 216.232 93.528,214.153 90.544,214.030 90.544 C 213.996 90.544,213.841 90.650,213.686 90.781 M275.205 127.282 L 275.205 160.184 273.045 161.368 C 271.858 162.019,269.680 163.192,268.206 163.975 C 266.731 164.758,265.190 165.621,264.780 165.893 C 264.371 166.166,263.589 166.567,263.042 166.785 C 262.496 167.003,261.890 167.328,261.696 167.508 C 261.502 167.687,260.407 168.318,259.264 168.911 C 256.845 170.166,248.023 175.121,247.803 175.348 C 247.502 175.660,249.195 175.055,250.986 174.211 C 252.000 173.734,252.892 173.343,252.968 173.343 C 253.555 173.343,269.214 166.010,269.546 165.580 C 269.628 165.473,270.298 165.100,271.035 164.749 C 271.772 164.399,272.911 163.804,273.567 163.428 C 274.222 163.051,275.629 162.262,276.694 161.675 C 277.759 161.088,279.300 160.238,280.119 159.786 C 280.938 159.335,282.500 158.449,283.590 157.818 C 284.681 157.187,285.887 156.525,286.271 156.346 C 286.957 156.026,287.678 155.628,292.967 152.643 C 297.301 150.198,297.936 149.847,299.181 149.210 C 299.836 148.874,301.243 148.075,302.308 147.433 C 303.373 146.792,304.713 146.026,305.287 145.732 C 305.860 145.438,306.374 145.097,306.428 144.974 C 306.483 144.851,306.740 144.751,306.999 144.751 C 307.259 144.751,307.395 144.674,307.301 144.581 C 307.077 144.357,304.691 145.078,304.691 145.369 C 304.691 145.494,303.987 145.828,303.127 146.111 C 302.267 146.394,301.497 146.714,301.415 146.822 C 301.333 146.930,300.797 147.191,300.223 147.403 C 299.650 147.615,298.511 148.096,297.692 148.473 C 293.431 150.434,292.777 150.707,292.349 150.707 C 292.093 150.707,291.884 150.835,291.884 150.990 C 291.884 151.145,291.147 151.505,290.246 151.789 C 289.345 152.073,288.608 152.415,288.608 152.549 C 288.608 152.683,288.463 152.792,288.286 152.792 C 287.809 152.792,283.442 154.928,283.098 155.331 C 282.934 155.522,282.331 155.859,281.757 156.080 C 281.184 156.301,280.648 156.557,280.566 156.650 C 280.484 156.743,279.881 157.086,279.226 157.412 C 278.570 157.738,277.967 158.082,277.885 158.177 C 277.803 158.271,277.301 158.563,276.768 158.824 L 275.800 159.299 275.800 127.024 C 275.800 105.828,275.698 94.685,275.503 94.564 C 275.305 94.442,275.205 105.424,275.205 127.282 M122.115 148.753 C 119.951 149.898,117.560 150.962,116.679 151.172 C 116.229 151.280,115.860 151.460,115.860 151.573 C 115.860 151.807,114.557 152.293,112.584 152.796 C 111.847 152.984,110.841 153.367,110.350 153.646 C 109.859 153.925,108.887 154.338,108.191 154.563 C 107.494 154.788,106.925 155.076,106.925 155.203 C 106.925 155.329,106.623 155.521,106.255 155.628 C 105.129 155.957,103.946 156.502,103.946 156.692 C 103.946 156.791,103.343 157.121,102.606 157.425 C 101.869 157.729,101.266 158.074,101.266 158.191 C 101.266 158.309,100.797 158.560,100.223 158.749 C 99.650 158.938,99.181 159.206,99.181 159.343 C 99.181 159.481,98.578 159.824,97.841 160.105 C 97.103 160.387,96.500 160.705,96.500 160.813 C 96.500 160.921,95.897 161.258,95.160 161.562 C 94.423 161.866,93.819 162.195,93.817 162.294 C 93.815 162.392,93.212 162.737,92.477 163.060 C 91.741 163.383,91.139 163.731,91.139 163.831 C 91.139 163.932,90.603 164.192,89.948 164.408 C 89.293 164.624,88.757 164.921,88.757 165.067 C 88.757 165.213,88.254 165.541,87.640 165.797 C 87.025 166.053,86.456 166.354,86.374 166.467 C 86.292 166.580,85.689 166.920,85.034 167.223 C 84.378 167.525,83.775 167.857,83.693 167.960 C 83.611 168.063,82.975 168.399,82.278 168.706 C 81.582 169.013,81.013 169.356,81.013 169.469 C 81.013 169.582,80.477 169.851,79.821 170.067 C 79.166 170.283,78.630 170.571,78.630 170.706 C 78.630 170.842,78.153 171.152,77.570 171.395 C 76.987 171.639,76.142 172.101,75.691 172.422 C 75.240 172.743,74.511 173.096,74.072 173.206 C 73.632 173.317,73.340 173.516,73.422 173.649 C 73.505 173.782,73.187 173.975,72.716 174.078 C 72.245 174.182,71.607 174.499,71.299 174.784 C 70.990 175.068,70.302 175.480,69.769 175.699 C 69.237 175.917,68.801 176.200,68.801 176.328 C 68.801 176.455,68.131 176.801,67.312 177.095 C 66.493 177.390,65.823 177.738,65.823 177.870 C 65.823 178.266,66.378 178.145,68.001 177.393 C 68.851 177.000,71.891 175.648,74.758 174.389 C 77.625 173.130,80.506 171.850,81.162 171.543 C 81.817 171.237,83.358 170.517,84.587 169.944 C 85.815 169.370,87.156 168.700,87.565 168.454 C 87.975 168.209,89.382 167.415,90.692 166.692 C 92.003 165.968,97.029 163.172,101.862 160.479 C 106.694 157.786,110.849 155.482,111.095 155.359 C 111.340 155.236,112.164 154.776,112.926 154.336 C 113.687 153.897,115.630 152.813,117.244 151.928 C 118.858 151.044,120.223 150.206,120.278 150.067 C 120.333 149.928,120.534 149.812,120.725 149.809 C 120.916 149.806,121.742 149.406,122.561 148.920 C 124.338 147.866,124.018 147.746,122.115 148.753 M320.735 165.999 C 320.918 166.219,320.979 166.487,320.871 166.595 C 320.763 166.703,320.831 166.791,321.023 166.791 C 321.421 166.791,321.438 166.718,321.189 166.071 C 321.090 165.811,320.872 165.599,320.706 165.599 C 320.516 165.599,320.527 165.748,320.735 165.999 M244.307 189.126 C 243.777 189.412,243.174 189.783,242.967 189.950 C 242.760 190.118,241.612 190.772,240.416 191.405 C 239.220 192.037,237.611 192.911,236.842 193.347 C 236.073 193.783,234.840 194.465,234.103 194.862 C 231.012 196.526,229.144 197.574,228.444 198.038 C 228.034 198.309,227.230 198.767,226.657 199.057 C 226.083 199.347,224.944 199.956,224.125 200.409 C 223.306 200.863,221.871 201.656,220.937 202.170 C 218.254 203.647,217.880 203.862,217.722 204.021 C 217.640 204.103,217.103 204.406,216.530 204.695 C 215.957 204.984,214.818 205.596,213.999 206.054 C 213.179 206.513,211.705 207.330,210.722 207.869 C 209.027 208.800,205.882 210.584,204.914 211.163 C 203.971 211.728,195.149 216.569,194.266 217.006 C 194.060 217.107,193.122 216.775,192.181 216.267 C 191.239 215.759,189.838 215.028,189.067 214.643 C 188.295 214.258,187.491 213.807,187.280 213.642 C 187.068 213.476,185.957 212.827,184.810 212.200 C 183.663 211.573,182.256 210.803,181.683 210.489 C 179.773 209.444,174.621 206.558,172.003 205.066 C 171.020 204.506,169.546 203.704,168.727 203.283 C 167.908 202.862,166.433 202.049,165.450 201.477 C 164.468 200.905,163.462 200.348,163.217 200.240 C 162.971 200.132,162.703 199.967,162.621 199.873 C 162.539 199.779,162.003 199.447,161.429 199.135 C 160.856 198.822,159.784 198.231,159.047 197.820 C 158.310 197.409,157.036 196.716,156.217 196.280 C 155.398 195.843,153.924 195.039,152.941 194.491 C 151.958 193.944,150.854 193.351,150.486 193.174 C 150.119 192.997,149.817 192.751,149.816 192.628 C 149.815 192.506,149.632 192.405,149.409 192.405 C 149.186 192.405,148.510 192.070,147.906 191.660 C 147.303 191.251,146.748 190.916,146.673 190.916 C 146.599 190.916,146.538 193.950,146.538 197.659 C 146.538 205.252,146.344 204.614,149.069 205.977 C 149.888 206.387,151.229 207.096,152.048 207.553 C 155.672 209.574,156.578 210.089,157.558 210.683 C 158.930 211.514,160.064 212.148,161.876 213.099 C 163.563 213.983,164.511 214.516,166.642 215.775 C 168.485 216.864,170.070 217.740,172.003 218.738 C 172.822 219.160,174.028 219.817,174.684 220.197 C 175.339 220.577,176.813 221.401,177.960 222.028 C 179.106 222.656,180.218 223.305,180.429 223.470 C 180.641 223.636,181.445 224.085,182.216 224.469 C 182.988 224.852,184.691 225.776,186.001 226.522 C 187.312 227.268,188.920 228.147,189.576 228.475 C 192.197 229.787,193.449 230.721,193.362 231.300 C 193.282 231.830,193.313 231.826,193.809 231.243 C 194.364 230.590,201.733 226.359,208.116 223.029 C 208.812 222.665,209.382 222.261,209.382 222.130 C 209.382 221.999,209.541 221.891,209.735 221.891 C 209.930 221.891,211.370 221.168,212.937 220.284 C 216.440 218.308,218.952 216.925,220.659 216.034 C 221.374 215.661,222.111 215.237,222.297 215.093 C 222.484 214.948,223.574 214.316,224.721 213.689 C 228.456 211.646,229.468 211.084,230.678 210.382 C 231.333 210.002,232.654 209.290,233.613 208.802 C 234.572 208.313,235.511 207.792,235.698 207.645 C 235.885 207.497,236.843 206.931,237.826 206.387 C 238.809 205.843,240.283 205.018,241.102 204.553 C 241.921 204.089,243.060 203.498,243.634 203.240 C 245.797 202.265,245.719 202.569,245.719 195.188 C 245.719 191.528,245.618 188.550,245.495 188.570 C 245.372 188.590,244.838 188.840,244.307 189.126 M327.456 206.701 C 327.456 210.879,327.498 212.587,327.549 210.499 C 327.601 208.410,327.601 204.993,327.549 202.904 C 327.498 200.815,327.456 202.524,327.456 206.701 M38.719 235.524 C 38.719 235.690,38.931 235.907,39.190 236.007 C 39.838 236.255,39.911 236.239,39.911 235.840 C 39.911 235.649,39.822 235.581,39.715 235.689 C 39.607 235.796,39.339 235.735,39.119 235.553 C 38.868 235.344,38.719 235.333,38.719 235.524 M69.524 252.724 C 69.840 252.963,70.171 253.085,70.260 252.996 C 70.447 252.809,69.691 252.278,69.248 252.285 C 69.084 252.288,69.208 252.485,69.524 252.724 M232.018 252.565 C 232.018 252.771,232.718 253.165,233.085 253.165 C 233.491 253.165,233.110 252.612,232.614 252.483 C 232.286 252.397,232.018 252.434,232.018 252.565 M242.144 258.224 C 242.144 258.430,242.845 258.824,243.211 258.824 C 243.618 258.824,243.236 258.271,242.740 258.142 C 242.413 258.056,242.144 258.093,242.144 258.224 M270.141 273.673 C 270.141 273.979,271.044 274.402,271.252 274.193 C 271.325 274.121,271.104 273.912,270.763 273.729 C 270.421 273.546,270.141 273.521,270.141 273.673 M279.747 273.615 C 279.137 273.861,279.325 274.268,279.970 274.100 C 280.298 274.014,280.566 273.826,280.566 273.681 C 280.566 273.397,280.334 273.378,279.747 273.615 " stroke="none" fill="#82aab2" fill-rule="evenodd"></path><path id="path3" d="M193.894 74.460 C 193.894 88.057,193.974 99.181,194.072 99.181 C 194.169 99.181,194.605 98.985,195.040 98.746 C 195.917 98.263,198.538 97.073,201.936 95.614 C 203.165 95.086,204.907 94.317,205.808 93.904 C 206.709 93.491,207.982 92.913,208.637 92.619 C 209.293 92.325,210.566 91.754,211.467 91.350 C 214.190 90.129,214.394 90.106,214.789 90.971 C 214.980 91.391,215.249 91.735,215.387 91.735 C 215.524 91.735,215.637 91.878,215.637 92.054 C 215.637 92.229,216.019 92.932,216.486 93.617 C 216.953 94.302,217.389 94.998,217.454 95.164 C 217.519 95.330,218.721 97.206,220.124 99.334 C 221.528 101.461,223.230 104.073,223.906 105.138 C 224.583 106.203,225.261 107.218,225.413 107.394 C 225.566 107.571,225.783 108.006,225.896 108.362 C 226.009 108.718,226.195 109.010,226.311 109.010 C 226.426 109.010,226.850 109.613,227.252 110.350 C 227.655 111.087,228.088 111.690,228.214 111.690 C 228.340 111.690,228.444 111.811,228.444 111.959 C 228.444 112.107,229.834 114.398,231.533 117.049 L 234.623 121.869 234.513 144.404 C 234.453 156.799,234.340 167.107,234.263 167.312 C 234.185 167.517,234.251 167.684,234.410 167.684 C 234.590 167.684,234.698 164.261,234.698 158.600 C 234.698 148.946,234.681 149.051,236.142 150.065 C 236.576 150.366,237.334 150.821,237.826 151.075 C 238.752 151.554,240.129 152.314,244.122 154.550 C 250.437 158.087,251.643 158.752,253.858 159.915 C 254.813 160.417,255.953 161.068,256.390 161.362 C 256.827 161.655,257.655 162.132,258.228 162.420 C 258.801 162.708,260.074 163.404,261.057 163.966 C 264.314 165.830,264.950 165.914,266.510 164.687 C 266.913 164.370,267.417 164.110,267.629 164.110 C 267.841 164.110,268.219 163.905,268.470 163.654 C 268.721 163.404,269.434 162.966,270.055 162.681 C 270.676 162.397,272.089 161.652,273.194 161.026 L 275.205 159.889 275.205 127.301 C 275.205 98.533,275.152 94.713,274.758 94.713 C 274.512 94.713,274.311 94.579,274.311 94.415 C 274.311 94.252,274.211 94.144,274.088 94.177 C 273.591 94.308,272.524 93.753,272.524 93.362 C 272.524 93.114,272.344 93.014,272.077 93.116 C 271.832 93.211,271.631 93.132,271.631 92.941 C 271.631 92.750,271.497 92.676,271.333 92.777 C 271.169 92.879,271.035 92.846,271.035 92.706 C 271.035 92.565,270.566 92.281,269.993 92.073 C 269.419 91.866,268.950 91.563,268.950 91.400 C 268.950 91.237,268.816 91.187,268.652 91.288 C 268.488 91.389,268.354 91.352,268.354 91.204 C 268.354 91.057,267.822 90.761,267.171 90.546 C 266.520 90.331,265.761 89.854,265.483 89.484 C 265.206 89.115,264.801 88.882,264.582 88.966 C 264.363 89.049,264.185 88.998,264.185 88.852 C 264.185 88.705,263.915 88.565,263.586 88.540 C 263.257 88.516,262.792 88.319,262.554 88.105 C 261.606 87.251,261.206 86.953,261.206 87.102 C 261.206 87.188,260.670 86.978,260.015 86.637 C 259.360 86.295,258.824 85.887,258.824 85.730 C 258.824 85.574,258.690 85.528,258.526 85.629 C 258.362 85.730,258.228 85.693,258.228 85.546 C 258.228 85.398,257.677 85.096,257.005 84.874 C 256.332 84.652,255.715 84.296,255.633 84.082 C 255.551 83.868,255.289 83.693,255.051 83.693 C 254.813 83.693,254.700 83.561,254.801 83.399 C 254.905 83.230,254.785 83.180,254.520 83.282 C 254.265 83.380,254.058 83.303,254.058 83.112 C 254.058 82.921,253.922 82.849,253.755 82.952 C 253.408 83.166,251.378 81.998,251.378 81.584 C 251.378 81.434,251.277 81.331,251.154 81.356 C 250.738 81.442,248.697 80.411,248.697 80.115 C 248.697 79.954,248.596 79.842,248.474 79.867 C 247.892 79.987,244.429 78.067,243.890 77.326 C 243.786 77.182,243.552 77.156,243.372 77.268 C 243.191 77.379,242.715 77.143,242.314 76.742 C 241.913 76.341,241.510 76.088,241.418 76.180 C 241.326 76.271,241.251 76.176,241.251 75.967 C 241.251 75.752,241.057 75.662,240.804 75.759 C 240.558 75.854,240.357 75.801,240.357 75.642 C 240.357 75.484,240.156 75.354,239.911 75.354 C 239.665 75.354,239.196 75.086,238.868 74.758 C 238.541 74.430,238.207 74.158,238.127 74.153 C 237.561 74.118,235.104 72.842,234.694 72.371 C 234.418 72.051,234.117 71.865,234.026 71.956 C 233.777 72.204,232.012 71.216,231.822 70.723 C 231.732 70.487,231.538 70.368,231.391 70.459 C 231.244 70.549,231.124 70.467,231.124 70.276 C 231.124 70.084,230.917 70.008,230.661 70.107 C 230.390 70.210,229.914 70.001,229.515 69.602 C 229.140 69.227,228.678 68.971,228.489 69.034 C 228.301 69.097,228.146 68.996,228.146 68.808 C 228.146 68.621,228.012 68.551,227.848 68.652 C 227.684 68.754,227.550 68.721,227.550 68.581 C 227.550 68.440,227.077 68.154,226.499 67.945 C 225.921 67.736,225.131 67.248,224.743 66.861 C 224.356 66.474,223.975 66.221,223.896 66.300 C 223.641 66.555,221.593 65.428,221.593 65.032 C 221.593 64.815,221.401 64.724,221.147 64.822 C 220.901 64.916,220.700 64.837,220.700 64.646 C 220.700 64.455,220.567 64.381,220.405 64.481 C 220.242 64.581,219.794 64.348,219.408 63.962 C 219.022 63.576,218.552 63.312,218.363 63.375 C 218.174 63.438,218.019 63.337,218.019 63.149 C 218.019 62.962,217.885 62.892,217.722 62.993 C 217.558 63.095,217.424 63.062,217.424 62.922 C 217.424 62.781,216.955 62.497,216.381 62.289 C 215.808 62.082,215.339 61.779,215.339 61.616 C 215.339 61.453,215.205 61.403,215.041 61.504 C 214.877 61.605,214.743 61.557,214.743 61.396 C 214.743 61.235,214.288 60.953,213.731 60.770 C 213.175 60.586,212.417 60.173,212.048 59.853 C 211.678 59.532,211.195 59.270,210.975 59.270 C 210.754 59.270,210.573 59.136,210.573 58.972 C 210.573 58.809,210.306 58.675,209.980 58.675 C 209.654 58.675,209.228 58.420,209.034 58.109 C 208.839 57.797,208.503 57.611,208.286 57.694 C 208.070 57.777,207.893 57.715,207.893 57.556 C 207.893 57.396,207.290 57.036,206.552 56.754 C 205.815 56.473,205.212 56.138,205.212 56.010 C 205.212 55.882,204.576 55.542,203.797 55.254 C 203.019 54.966,202.246 54.579,202.079 54.394 C 201.911 54.209,200.873 53.596,199.770 53.031 C 198.668 52.466,197.766 51.924,197.766 51.825 C 197.766 51.727,197.315 51.483,196.764 51.284 C 196.212 51.084,195.455 50.655,195.080 50.330 C 194.705 50.005,194.285 49.739,194.147 49.739 C 194.008 49.739,193.894 60.864,193.894 74.460 M171.109 114.360 C 170.127 114.829,168.652 115.507,167.833 115.866 C 166.225 116.572,164.475 117.364,161.430 118.763 C 160.365 119.252,159.159 119.754,158.749 119.877 C 158.340 120.001,157.854 120.222,157.671 120.369 C 157.487 120.515,156.415 120.957,155.288 121.351 L 153.239 122.067 153.163 144.696 L 153.086 167.325 154.205 168.007 C 154.820 168.382,155.927 169.000,156.664 169.380 C 157.401 169.761,158.675 170.459,159.494 170.932 C 160.313 171.406,161.519 172.067,162.174 172.401 C 163.467 173.062,165.063 173.999,165.302 174.237 C 165.383 174.319,165.920 174.626,166.493 174.920 C 167.858 175.621,170.438 177.014,172.301 178.057 C 173.120 178.516,174.727 179.396,175.873 180.014 C 177.019 180.632,178.024 181.231,178.107 181.344 C 178.190 181.458,178.861 181.806,179.598 182.119 C 180.335 182.432,181.139 182.850,181.385 183.049 C 181.631 183.247,182.636 183.849,183.619 184.386 C 184.602 184.923,186.076 185.736,186.895 186.193 C 187.714 186.650,188.961 187.306,189.667 187.651 C 190.372 187.996,191.550 188.684,192.285 189.179 C 193.697 190.132,194.429 190.154,195.532 189.276 C 196.079 188.841,196.050 188.840,195.175 189.263 C 194.651 189.517,194.146 189.724,194.054 189.724 C 193.962 189.724,193.922 179.607,193.965 167.241 C 194.021 151.030,193.951 144.722,193.714 144.631 C 193.533 144.561,192.930 143.736,192.374 142.796 C 191.042 140.546,190.989 140.461,189.405 138.043 C 188.072 136.009,186.956 134.275,184.763 130.827 C 184.164 129.885,183.113 128.243,182.427 127.178 C 181.742 126.113,180.711 124.505,180.138 123.604 C 177.363 119.245,176.144 117.359,175.088 115.789 C 174.456 114.849,173.939 113.944,173.939 113.778 C 173.939 113.270,172.979 113.467,171.109 114.360 M125.686 147.583 C 125.484 147.827,125.074 148.027,124.776 148.027 C 124.478 148.027,124.147 148.168,124.041 148.341 C 123.934 148.513,123.275 148.949,122.576 149.309 C 120.899 150.172,118.220 151.650,116.009 152.933 C 115.026 153.503,113.552 154.316,112.733 154.740 C 111.914 155.164,110.573 155.898,109.754 156.371 C 108.935 156.845,107.930 157.408,107.520 157.623 C 107.111 157.837,105.454 158.748,103.838 159.647 C 102.223 160.546,100.279 161.624,99.520 162.044 C 98.760 162.464,97.602 163.122,96.947 163.507 C 96.292 163.891,94.751 164.740,93.522 165.393 C 92.293 166.045,91.077 166.761,90.818 166.983 C 90.559 167.205,90.209 167.386,90.040 167.386 C 89.871 167.386,89.258 167.709,88.678 168.103 C 88.097 168.497,85.163 169.919,82.158 171.264 C 79.153 172.608,76.158 173.950,75.503 174.244 C 69.216 177.071,66.915 178.050,66.046 178.267 L 65.227 178.471 65.182 195.341 C 65.157 204.620,65.118 214.861,65.095 218.100 L 65.053 223.989 66.704 224.930 C 67.612 225.448,68.958 226.194,69.695 226.589 C 70.432 226.984,71.236 227.470,71.482 227.670 C 71.727 227.870,72.532 228.290,73.269 228.603 C 74.006 228.916,74.677 229.265,74.760 229.379 C 74.843 229.492,75.983 230.150,77.292 230.841 C 78.601 231.532,80.028 232.347,80.463 232.653 C 80.898 232.959,81.400 233.209,81.580 233.209 C 81.759 233.209,81.907 233.310,81.907 233.433 C 81.908 233.555,82.545 233.918,83.322 234.237 C 84.100 234.557,85.190 235.126,85.745 235.503 C 86.300 235.880,86.937 236.188,87.160 236.188 C 87.383 236.188,87.565 236.315,87.565 236.472 C 87.565 236.628,88.135 237.025,88.831 237.355 C 90.635 238.210,94.533 240.371,94.712 240.615 C 94.794 240.728,95.465 241.077,96.203 241.389 C 96.940 241.702,97.744 242.115,97.990 242.308 C 98.448 242.666,100.975 244.095,103.345 245.336 C 104.079 245.720,104.810 246.165,104.968 246.324 C 105.392 246.747,106.136 246.676,106.793 246.149 C 107.352 245.701,107.349 245.696,106.721 246.000 C 106.363 246.173,105.992 246.314,105.895 246.314 C 105.799 246.314,105.738 236.261,105.760 223.973 L 105.800 201.631 106.586 201.077 C 107.322 200.558,109.148 199.523,112.286 197.846 C 113.023 197.451,114.430 196.672,115.413 196.114 C 116.396 195.555,117.535 194.930,117.945 194.726 C 118.354 194.521,118.757 194.283,118.839 194.198 C 119.030 193.999,120.670 193.106,122.529 192.188 C 123.331 191.793,124.178 191.278,124.412 191.044 C 124.646 190.810,125.019 190.618,125.240 190.618 C 125.462 190.618,126.022 190.303,126.485 189.919 C 126.948 189.534,127.665 189.137,128.077 189.037 C 128.490 188.936,129.121 188.581,129.480 188.247 C 129.838 187.913,130.329 187.640,130.569 187.640 C 130.810 187.640,131.189 187.458,131.412 187.235 C 131.634 187.013,132.314 186.651,132.922 186.431 C 133.531 186.211,134.028 185.930,134.028 185.807 C 134.028 185.683,134.598 185.304,135.294 184.963 C 135.990 184.622,137.230 183.970,138.049 183.513 C 138.868 183.056,140.343 182.243,141.325 181.705 C 142.308 181.168,143.313 180.555,143.559 180.342 C 143.805 180.129,144.506 179.749,145.117 179.496 L 146.227 179.038 146.315 184.902 L 146.402 190.767 146.470 184.846 L 146.538 178.924 145.495 177.473 C 144.922 176.675,144.453 175.948,144.453 175.857 C 144.453 175.766,143.850 174.829,143.112 173.774 C 142.375 172.720,141.772 171.786,141.772 171.699 C 141.772 171.534,139.906 168.689,139.390 168.069 C 139.226 167.871,139.092 167.621,139.092 167.513 C 139.092 167.406,138.622 166.678,138.049 165.897 C 137.476 165.116,137.007 164.354,137.007 164.204 C 137.007 164.054,136.404 163.103,135.666 162.090 C 134.929 161.077,134.326 160.135,134.326 159.998 C 134.326 159.861,133.928 159.222,133.441 158.579 C 132.954 157.935,132.552 157.241,132.547 157.036 C 132.543 156.832,132.402 156.664,132.234 156.664 C 132.066 156.664,131.798 156.320,131.638 155.899 C 131.478 155.479,131.012 154.695,130.603 154.159 C 130.193 153.622,129.859 153.042,129.859 152.870 C 129.859 152.699,129.657 152.481,129.412 152.387 C 129.166 152.292,128.965 152.068,128.965 151.887 C 128.965 151.707,128.563 150.975,128.071 150.261 C 127.580 149.546,127.178 148.873,127.178 148.765 C 127.178 148.067,126.036 147.162,125.686 147.583 M262.695 169.167 C 257.100 171.733,256.609 171.957,255.101 172.626 C 254.281 172.990,252.606 173.712,251.378 174.230 C 250.149 174.748,248.763 175.379,248.297 175.631 C 247.831 175.884,247.106 176.182,246.685 176.295 L 245.919 176.500 245.878 198.823 C 245.834 223.282,245.721 221.936,247.903 222.980 C 248.749 223.385,250.112 224.101,250.931 224.573 C 251.750 225.044,252.889 225.669,253.462 225.961 C 254.036 226.253,255.044 226.849,255.703 227.286 C 256.362 227.724,257.367 228.303,257.937 228.574 C 258.506 228.844,259.643 229.457,260.462 229.934 C 261.281 230.412,262.554 231.094,263.291 231.451 C 264.028 231.807,264.970 232.337,265.384 232.627 C 266.199 233.199,268.139 234.295,270.737 235.651 C 271.638 236.121,273.008 236.870,273.781 237.315 C 274.554 237.760,276.028 238.573,277.057 239.121 C 278.086 239.670,279.088 240.250,279.284 240.411 C 279.735 240.779,281.801 241.909,283.544 242.739 C 284.281 243.091,285.086 243.549,285.331 243.759 C 286.738 244.955,286.672 246.041,286.672 221.704 C 286.672 203.706,286.594 198.958,286.299 198.958 C 286.095 198.958,285.927 198.777,285.927 198.555 C 285.927 198.334,285.525 197.598,285.034 196.920 C 284.542 196.242,284.140 195.611,284.140 195.518 C 284.140 195.425,283.537 194.486,282.800 193.432 C 282.063 192.377,281.459 191.431,281.459 191.329 C 281.459 191.228,280.990 190.506,280.417 189.724 C 279.844 188.943,279.375 188.222,279.375 188.122 C 279.375 188.021,278.905 187.286,278.332 186.488 C 277.759 185.690,277.290 184.948,277.290 184.839 C 277.290 184.731,276.552 183.590,275.652 182.304 C 274.751 181.019,274.013 179.881,274.013 179.778 C 274.013 179.674,273.410 178.760,272.673 177.747 C 271.936 176.734,271.333 175.796,271.333 175.664 C 271.333 175.531,270.931 174.868,270.439 174.190 C 269.948 173.511,269.546 172.789,269.546 172.586 C 269.546 172.382,269.345 172.138,269.099 172.044 C 268.853 171.950,268.652 171.719,268.652 171.531 C 268.652 171.160,266.215 167.692,265.972 167.717 C 265.890 167.726,264.415 168.378,262.695 169.167 M231.943 168.748 C 230.789 169.375,230.919 169.591,232.092 168.994 C 233.215 168.423,233.414 168.275,233.035 168.292 C 232.885 168.298,232.394 168.504,231.943 168.748 M226.913 171.574 L 226.210 172.187 227.103 171.664 C 228.280 170.975,228.297 170.961,227.931 170.961 C 227.758 170.961,227.300 171.237,226.913 171.574 M221.760 174.395 C 221.017 174.957,221.292 174.954,222.378 174.388 C 222.848 174.143,223.031 173.946,222.785 173.950 C 222.539 173.954,222.078 174.155,221.760 174.395 M219.467 175.743 C 218.801 176.323,218.798 176.339,219.418 176.039 C 219.777 175.865,220.153 175.589,220.254 175.427 C 220.547 174.953,220.226 175.082,219.467 175.743 M214.669 178.279 C 213.555 178.883,213.623 179.135,214.743 178.555 C 215.235 178.301,215.637 178.030,215.637 177.952 C 215.637 177.760,215.605 177.771,214.669 178.279 M320.996 179.870 C 319.771 180.655,319.602 180.931,320.681 180.383 C 321.203 180.117,321.714 179.765,321.816 179.600 C 322.054 179.214,321.983 179.237,320.996 179.870 M318.019 181.555 C 316.906 182.159,316.974 182.411,318.094 181.832 C 318.585 181.578,318.987 181.306,318.987 181.228 C 318.987 181.037,318.955 181.048,318.019 181.555 M205.736 183.277 C 203.425 184.604,203.124 185.012,205.361 183.787 C 206.989 182.896,207.923 182.264,207.580 182.287 C 207.506 182.292,206.677 182.738,205.736 183.277 M314.222 183.641 C 313.321 184.201,312.721 184.659,312.890 184.660 C 313.058 184.661,313.460 184.477,313.783 184.253 C 314.106 184.028,314.905 183.559,315.558 183.210 C 316.211 182.862,316.546 182.587,316.302 182.600 C 316.059 182.613,315.123 183.082,314.222 183.641 M201.862 185.427 C 200.748 186.031,200.816 186.283,201.936 185.704 C 202.427 185.450,202.829 185.178,202.829 185.100 C 202.829 184.909,202.797 184.919,201.862 185.427 M308.116 187.064 C 307.625 187.379,307.375 187.637,307.562 187.638 C 307.749 187.639,308.218 187.376,308.604 187.054 C 309.490 186.316,309.277 186.321,308.116 187.064 M305.138 188.690 C 304.483 189.093,304.065 189.424,304.209 189.425 C 304.514 189.427,306.478 188.247,306.478 188.062 C 306.478 187.873,306.419 187.901,305.138 188.690 M146.312 207.312 C 146.266 217.755,146.130 223.989,145.943 224.216 C 145.777 224.415,145.844 224.403,146.094 224.187 C 146.485 223.850,146.533 221.687,146.463 207.284 L 146.384 190.767 146.312 207.312 M298.208 192.539 C 297.243 193.072,297.089 193.284,297.801 193.097 C 298.140 193.009,298.572 192.750,298.761 192.522 C 299.163 192.038,299.112 192.039,298.208 192.539 M295.309 194.192 C 294.818 194.518,294.550 194.782,294.713 194.779 C 295.012 194.775,296.631 193.614,296.351 193.605 C 296.270 193.602,295.800 193.867,295.309 194.192 M327.029 218.061 C 327.029 221.145,326.952 221.739,326.508 222.098 C 326.037 222.479,326.052 222.488,326.657 222.195 C 327.283 221.892,327.784 214.445,327.178 214.445 C 327.096 214.445,327.029 216.072,327.029 218.061 M142.301 226.181 C 140.708 227.127,140.515 227.434,141.975 226.698 C 142.660 226.352,143.305 225.934,143.408 225.767 C 143.644 225.385,143.632 225.390,142.301 226.181 M318.615 226.379 C 318.001 226.703,317.498 227.035,317.498 227.117 C 317.498 227.198,318.034 226.991,318.690 226.657 C 319.345 226.322,319.881 225.985,319.881 225.906 C 319.881 225.711,319.879 225.712,318.615 226.379 M316.232 227.721 C 315.119 228.325,315.187 228.576,316.307 227.997 C 316.798 227.743,317.200 227.471,317.200 227.394 C 317.200 227.202,317.168 227.213,316.232 227.721 M136.667 229.355 L 135.964 229.968 136.858 229.445 C 138.034 228.757,138.051 228.742,137.685 228.742 C 137.512 228.742,137.054 229.018,136.667 229.355 M134.401 230.538 C 134.032 230.686,133.730 230.879,133.730 230.966 C 133.730 231.255,134.204 231.130,134.790 230.687 C 135.449 230.189,135.357 230.153,134.401 230.538 M308.488 232.038 C 307.874 232.362,307.372 232.694,307.372 232.776 C 307.372 232.857,307.908 232.650,308.563 232.316 C 309.218 231.981,309.754 231.644,309.754 231.565 C 309.754 231.370,309.752 231.371,308.488 232.038 M131.646 232.167 C 131.236 232.401,131.035 232.592,131.199 232.592 C 131.363 232.592,131.832 232.401,132.241 232.167 C 132.651 231.933,132.852 231.741,132.688 231.741 C 132.524 231.741,132.055 231.933,131.646 232.167 M306.106 233.380 C 304.992 233.984,305.060 234.235,306.180 233.656 C 306.672 233.402,307.074 233.130,307.074 233.053 C 307.074 232.861,307.042 232.872,306.106 233.380 M303.425 234.869 C 302.312 235.473,302.379 235.724,303.500 235.145 C 303.991 234.891,304.393 234.620,304.393 234.542 C 304.393 234.350,304.361 234.361,303.425 234.869 M295.756 239.166 C 295.182 239.480,294.821 239.742,294.951 239.749 C 295.267 239.766,296.947 238.892,296.947 238.712 C 296.947 238.517,296.930 238.523,295.756 239.166 M118.707 239.324 C 117.964 239.887,118.239 239.883,119.326 239.317 C 119.795 239.072,119.978 238.875,119.732 238.880 C 119.486 238.884,119.025 239.084,118.707 239.324 M293.594 240.332 C 292.370 241.116,292.201 241.393,293.280 240.844 C 293.802 240.579,294.312 240.227,294.414 240.062 C 294.653 239.675,294.582 239.699,293.594 240.332 M111.759 243.172 C 110.795 243.704,110.641 243.916,111.353 243.730 C 111.692 243.642,112.123 243.383,112.313 243.155 C 112.714 242.671,112.663 242.672,111.759 243.172 " stroke="none" fill="#bfe7ec" fill-rule="evenodd"></path><path id="path4" d="M176.333 117.498 C 176.334 117.662,176.609 118.131,176.944 118.541 C 177.348 119.035,177.450 119.085,177.245 118.690 C 176.743 117.718,176.331 117.179,176.333 117.498 M189.724 138.413 C 189.724 138.586,190.001 139.044,190.338 139.431 L 190.951 140.134 190.428 139.241 C 189.739 138.065,189.724 138.047,189.724 138.413 M306.478 144.978 C 306.478 145.103,305.975 145.444,305.361 145.735 C 304.747 146.025,303.440 146.747,302.457 147.338 C 300.668 148.414,299.961 148.811,296.351 150.769 C 295.287 151.347,293.498 152.340,292.377 152.976 C 291.256 153.612,289.581 154.562,288.654 155.088 C 287.728 155.613,286.655 156.184,286.271 156.357 C 285.887 156.530,284.614 157.237,283.442 157.928 C 281.121 159.297,279.580 160.157,277.736 161.109 C 277.081 161.448,275.607 162.263,274.460 162.921 C 273.313 163.579,271.772 164.403,271.035 164.752 C 270.298 165.101,269.628 165.468,269.546 165.568 C 269.464 165.668,268.995 165.948,268.503 166.192 C 268.012 166.435,267.243 166.848,266.794 167.109 L 265.978 167.585 267.193 169.198 C 267.862 170.086,268.527 171.113,268.672 171.482 C 268.817 171.850,269.073 172.152,269.241 172.152 C 269.408 172.152,269.546 172.333,269.546 172.554 C 269.546 172.775,269.948 173.511,270.439 174.190 C 270.931 174.868,271.333 175.531,271.333 175.664 C 271.333 175.796,271.936 176.734,272.673 177.747 C 273.410 178.760,274.013 179.701,274.013 179.837 C 274.013 179.974,274.449 180.615,274.981 181.261 C 275.950 182.436,276.442 183.201,277.217 184.736 C 277.445 185.186,277.734 185.555,277.860 185.555 C 277.986 185.555,278.406 186.191,278.792 186.969 C 279.178 187.748,279.937 189.005,280.477 189.764 C 281.017 190.524,281.459 191.228,281.459 191.329 C 281.459 191.431,282.063 192.377,282.800 193.432 C 283.537 194.486,284.140 195.425,284.140 195.518 C 284.140 195.611,284.542 196.242,285.034 196.920 C 285.525 197.598,285.927 198.334,285.927 198.555 C 285.927 199.296,286.782 198.971,290.610 196.773 C 292.703 195.571,295.736 193.862,297.351 192.975 C 298.966 192.088,300.775 191.085,301.372 190.746 C 304.668 188.873,313.417 184.066,313.530 184.066 C 313.589 184.066,314.171 183.729,314.822 183.318 C 315.474 182.907,316.711 182.187,317.571 181.720 C 319.354 180.750,321.327 179.659,323.380 178.505 C 324.159 178.068,325.322 177.426,325.966 177.077 C 327.226 176.396,327.682 175.726,326.885 175.726 C 326.517 175.726,326.445 175.564,326.597 175.085 C 326.758 174.576,326.701 174.482,326.319 174.629 C 325.958 174.768,325.838 174.634,325.838 174.093 C 325.838 173.697,325.603 173.236,325.316 173.069 C 325.030 172.902,324.896 172.762,325.019 172.757 C 325.141 172.752,324.974 172.480,324.646 172.152 C 324.319 171.824,324.051 171.274,324.051 170.929 C 324.051 170.493,323.914 170.354,323.604 170.473 C 323.284 170.595,323.157 170.443,323.157 169.940 C 323.157 169.553,322.824 168.920,322.418 168.535 C 322.011 168.149,321.676 167.670,321.673 167.471 C 321.670 167.272,321.400 166.966,321.072 166.791 C 320.745 166.615,320.477 166.209,320.477 165.887 C 320.477 165.530,320.273 165.300,319.955 165.297 C 319.541 165.293,319.519 165.239,319.847 165.031 C 320.182 164.819,320.139 164.666,319.624 164.225 C 319.274 163.925,318.987 163.516,318.987 163.316 C 318.987 163.116,318.753 162.776,318.466 162.560 C 317.830 162.080,317.200 161.002,317.200 160.391 C 317.200 160.143,316.999 159.940,316.754 159.940 C 316.508 159.940,316.307 159.760,316.307 159.539 C 316.307 158.935,315.410 157.260,315.086 157.260 C 314.930 157.260,314.675 156.925,314.520 156.515 C 314.364 156.106,314.099 155.771,313.931 155.771 C 313.764 155.771,313.626 155.503,313.626 155.175 C 313.626 154.847,313.492 154.579,313.328 154.579 C 313.165 154.579,313.031 154.307,313.031 153.974 C 313.031 153.642,312.829 153.292,312.584 153.198 C 312.338 153.104,312.137 152.841,312.137 152.614 C 312.137 152.387,311.887 152.045,311.581 151.855 C 311.247 151.646,311.083 151.289,311.169 150.959 C 311.265 150.592,311.153 150.410,310.831 150.410 C 310.540 150.410,310.350 150.161,310.350 149.782 C 310.350 149.334,310.216 149.206,309.882 149.334 C 309.548 149.462,309.443 149.364,309.518 148.994 C 309.630 148.436,309.574 148.334,308.422 147.015 C 308.008 146.541,307.669 145.896,307.669 145.583 C 307.669 145.270,307.535 145.096,307.372 145.197 C 307.208 145.299,307.074 145.239,307.074 145.066 C 307.074 144.892,306.940 144.751,306.776 144.751 C 306.612 144.751,306.478 144.853,306.478 144.978 M151.859 150.079 C 151.466 150.388,150.677 150.853,150.107 151.112 C 149.536 151.371,148.131 152.119,146.984 152.775 C 145.838 153.431,144.162 154.340,143.261 154.795 C 142.360 155.250,141.550 155.720,141.460 155.840 C 141.296 156.059,140.535 156.480,136.477 158.596 C 134.380 159.689,134.324 159.747,134.767 160.355 C 135.019 160.700,135.356 161.287,135.515 161.659 C 135.675 162.030,136.343 163.063,137.001 163.954 C 137.660 164.845,138.198 165.670,138.198 165.788 C 138.198 166.078,140.375 169.297,140.655 169.422 C 140.778 169.476,140.879 169.653,140.879 169.815 C 140.879 169.976,141.281 170.693,141.772 171.407 C 142.264 172.122,142.666 172.784,142.666 172.880 C 142.666 172.976,143.269 173.884,144.006 174.897 C 144.743 175.910,145.349 176.879,145.353 177.051 C 145.357 177.223,145.622 177.699,145.942 178.109 C 146.475 178.790,146.525 179.358,146.533 184.810 L 146.542 190.767 147.508 191.421 C 148.039 191.780,148.742 192.174,149.069 192.296 C 149.397 192.418,150.335 192.943,151.154 193.462 C 151.973 193.982,152.968 194.509,153.365 194.634 C 153.762 194.759,154.362 195.118,154.699 195.431 C 155.036 195.745,155.650 196.082,156.063 196.180 C 156.475 196.277,157.014 196.528,157.260 196.737 C 157.707 197.117,159.386 198.068,162.174 199.522 C 162.993 199.949,163.730 200.368,163.812 200.454 C 164.209 200.869,165.625 201.638,165.992 201.638 C 166.220 201.638,166.766 201.972,167.207 202.380 C 167.647 202.788,168.370 203.208,168.814 203.313 C 169.257 203.418,169.888 203.734,170.216 204.015 C 170.544 204.296,171.482 204.841,172.301 205.226 C 173.120 205.611,173.946 206.079,174.137 206.267 C 174.328 206.455,174.931 206.785,175.477 207.002 C 176.024 207.218,176.716 207.605,177.016 207.861 C 177.315 208.116,178.216 208.664,179.018 209.077 C 183.261 211.264,183.929 211.622,184.066 211.781 C 184.147 211.877,184.850 212.259,185.628 212.630 C 186.405 213.002,187.111 213.419,187.197 213.558 C 187.283 213.697,188.117 214.161,189.051 214.588 C 189.984 215.016,190.819 215.461,190.907 215.579 C 191.469 216.336,194.206 217.207,194.710 216.789 C 194.998 216.550,196.039 215.958,197.022 215.474 C 198.004 214.990,198.876 214.526,198.958 214.443 C 199.039 214.360,199.844 213.905,200.745 213.432 C 201.646 212.959,202.584 212.406,202.829 212.203 C 203.075 212.001,203.611 211.736,204.021 211.616 C 204.430 211.495,204.973 211.215,205.226 210.993 C 205.480 210.772,206.284 210.273,207.013 209.885 C 207.743 209.497,209.278 208.663,210.424 208.032 C 211.571 207.401,213.102 206.575,213.827 206.197 C 214.551 205.818,215.356 205.324,215.614 205.098 C 215.872 204.872,216.418 204.586,216.828 204.463 C 217.238 204.339,217.640 204.156,217.722 204.055 C 217.871 203.871,218.755 203.361,220.700 202.336 C 221.273 202.034,221.809 201.709,221.891 201.613 C 221.973 201.518,222.789 201.089,223.705 200.659 C 224.620 200.230,225.534 199.680,225.736 199.438 C 225.937 199.195,226.477 198.914,226.935 198.813 C 227.393 198.712,228.023 198.402,228.335 198.124 C 228.647 197.845,229.771 197.162,230.832 196.605 C 233.454 195.229,235.181 194.291,236.826 193.347 C 237.586 192.911,239.128 192.051,240.251 191.436 C 241.374 190.822,243.016 189.917,243.898 189.426 C 245.832 188.350,245.657 188.357,245.780 189.352 C 245.835 189.803,245.878 187.110,245.874 183.368 L 245.867 176.564 247.022 176.167 C 247.656 175.949,248.327 175.619,248.511 175.433 C 248.760 175.182,248.693 175.150,248.250 175.309 C 247.923 175.427,247.722 175.449,247.803 175.358 C 248.012 175.127,256.751 170.214,259.270 168.911 C 260.417 168.318,261.427 167.738,261.515 167.621 C 261.602 167.505,262.329 167.120,263.129 166.766 L 264.584 166.122 263.416 165.416 C 262.774 165.027,262.125 164.708,261.974 164.707 C 261.823 164.707,261.488 164.524,261.230 164.301 C 260.971 164.079,259.821 163.384,258.675 162.757 C 257.528 162.131,255.987 161.286,255.249 160.879 C 254.512 160.473,253.239 159.779,252.420 159.337 C 250.968 158.554,248.861 157.404,247.059 156.412 C 246.567 156.141,246.098 155.853,246.016 155.771 C 245.934 155.689,245.398 155.379,244.825 155.083 C 244.252 154.787,243.112 154.157,242.293 153.684 C 241.474 153.210,240.268 152.556,239.613 152.231 C 238.958 151.905,237.584 151.162,236.560 150.580 L 234.698 149.522 234.698 158.540 L 234.698 167.559 232.570 168.739 C 228.725 170.869,226.980 171.840,225.093 172.896 C 224.069 173.469,222.628 174.240,221.891 174.609 C 221.154 174.978,220.484 175.352,220.402 175.441 C 220.320 175.530,218.913 176.336,217.275 177.231 C 215.637 178.126,213.894 179.090,213.403 179.372 C 212.911 179.654,212.040 180.102,211.467 180.367 C 210.894 180.632,210.223 181.020,209.978 181.229 C 209.732 181.439,208.593 182.118,207.446 182.739 C 204.413 184.381,203.451 184.912,201.787 185.863 C 200.968 186.331,199.829 186.949,199.255 187.236 C 198.682 187.524,197.373 188.268,196.346 188.891 C 194.103 190.251,193.892 190.264,192.241 189.150 C 191.531 188.670,190.372 187.996,189.667 187.651 C 188.961 187.306,187.714 186.650,186.895 186.193 C 186.076 185.736,184.602 184.923,183.619 184.386 C 182.636 183.849,181.631 183.247,181.385 183.049 C 181.139 182.850,180.335 182.432,179.598 182.119 C 178.861 181.806,178.190 181.458,178.107 181.344 C 178.024 181.231,177.019 180.632,175.873 180.014 C 174.727 179.396,173.120 178.516,172.301 178.057 C 170.438 177.014,167.858 175.621,166.493 174.920 C 165.920 174.626,165.383 174.319,165.302 174.237 C 165.063 173.999,163.467 173.062,162.174 172.401 C 161.519 172.067,160.313 171.406,159.494 170.932 C 158.675 170.459,157.401 169.761,156.664 169.380 C 155.927 169.000,154.821 168.383,154.207 168.008 L 153.090 167.328 153.090 158.422 C 153.090 153.524,152.974 149.516,152.832 149.516 C 152.691 149.516,152.253 149.769,151.859 150.079 M64.830 178.903 C 64.495 179.238,64.593 211.765,64.929 211.765 C 65.124 211.765,65.227 206.056,65.227 195.235 C 65.227 186.143,65.182 178.704,65.128 178.704 C 65.073 178.704,64.939 178.794,64.830 178.903 M245.268 202.240 C 245.161 202.413,244.448 202.862,243.684 203.238 C 242.919 203.614,241.690 204.260,240.953 204.675 C 240.216 205.089,238.809 205.867,237.826 206.405 C 236.843 206.942,235.704 207.607,235.294 207.883 C 234.885 208.159,233.946 208.679,233.209 209.040 C 232.472 209.400,231.333 210.004,230.678 210.381 C 230.022 210.759,228.749 211.475,227.848 211.972 C 226.947 212.469,225.674 213.183,225.019 213.560 C 224.363 213.937,223.492 214.434,223.083 214.665 C 222.673 214.897,221.668 215.475,220.849 215.950 C 220.030 216.424,218.824 217.086,218.168 217.421 C 217.513 217.755,216.307 218.419,215.488 218.897 C 214.669 219.374,213.703 219.902,213.343 220.071 C 212.982 220.239,212.147 220.717,211.487 221.134 C 210.827 221.550,210.084 221.891,209.835 221.891 C 209.586 221.891,209.382 221.999,209.382 222.130 C 209.382 222.261,208.812 222.662,208.116 223.022 C 207.420 223.382,206.180 224.073,205.361 224.558 C 204.542 225.043,203.537 225.579,203.127 225.750 C 202.718 225.921,202.182 226.191,201.936 226.350 C 201.690 226.510,199.850 227.549,197.848 228.659 C 195.845 229.769,194.203 230.769,194.199 230.880 C 194.184 231.314,195.201 232.056,196.041 232.224 C 196.526 232.321,196.997 232.590,197.086 232.822 C 197.175 233.054,197.420 233.177,197.631 233.096 C 197.842 233.015,198.086 233.134,198.173 233.361 C 198.260 233.587,198.813 233.863,199.403 233.973 C 199.992 234.084,200.402 234.247,200.313 234.336 C 200.126 234.523,201.973 235.741,202.308 235.651 C 202.431 235.619,202.532 235.726,202.532 235.890 C 202.532 236.054,202.747 236.188,203.010 236.188 C 203.273 236.188,203.886 236.523,204.373 236.932 C 204.860 237.342,205.616 237.760,206.054 237.862 C 206.492 237.963,206.984 238.203,207.148 238.395 C 207.481 238.786,209.459 239.762,209.917 239.762 C 210.079 239.762,210.642 240.163,211.168 240.654 C 211.693 241.145,212.244 241.472,212.391 241.381 C 212.538 241.290,212.658 241.358,212.658 241.531 C 212.658 241.705,212.919 241.847,213.237 241.847 C 213.555 241.847,213.994 242.101,214.212 242.413 C 214.430 242.724,215.149 243.124,215.809 243.302 C 216.469 243.480,217.457 244.025,218.004 244.514 C 218.552 245.002,219.120 245.328,219.267 245.237 C 219.414 245.146,219.730 245.234,219.968 245.432 C 220.207 245.630,220.402 245.678,220.402 245.540 C 220.402 245.401,220.611 245.586,220.866 245.950 C 221.121 246.314,221.523 246.612,221.759 246.612 C 221.996 246.612,222.189 246.754,222.189 246.927 C 222.189 247.101,222.312 247.167,222.462 247.075 C 222.611 246.982,222.802 247.075,222.885 247.280 C 223.005 247.578,223.040 247.578,223.059 247.282 C 223.075 247.031,223.265 247.080,223.643 247.431 C 224.662 248.379,225.581 248.995,225.977 248.995 C 226.484 248.995,227.636 249.642,227.924 250.088 C 228.048 250.280,228.584 250.532,229.116 250.648 C 229.647 250.763,230.393 251.167,230.774 251.545 C 231.154 251.924,231.891 252.327,232.412 252.441 C 232.932 252.555,233.533 252.899,233.747 253.205 C 233.961 253.510,234.330 253.760,234.566 253.760 C 234.803 253.760,234.996 253.863,234.996 253.988 C 234.996 254.114,235.666 254.454,236.485 254.745 C 237.305 255.036,237.975 255.409,237.975 255.575 C 237.975 255.873,239.712 256.628,240.125 256.509 C 240.243 256.475,240.469 256.689,240.628 256.986 C 240.787 257.282,241.494 257.711,242.201 257.938 C 242.907 258.165,243.596 258.532,243.732 258.753 C 244.019 259.218,245.397 259.841,245.942 259.752 C 246.147 259.718,246.314 259.831,246.314 260.002 C 246.314 260.173,246.491 260.313,246.707 260.313 C 246.923 260.313,247.392 260.648,247.748 261.057 C 248.122 261.488,248.716 261.802,249.156 261.802 C 249.574 261.802,250.212 262.118,250.573 262.505 C 251.198 263.175,252.453 263.777,252.949 263.645 C 253.077 263.611,253.259 263.786,253.354 264.033 C 253.449 264.280,253.772 264.483,254.073 264.483 C 254.374 264.483,254.807 264.750,255.036 265.076 C 255.264 265.402,255.856 265.751,256.351 265.849 C 256.845 265.948,257.636 266.361,258.109 266.767 C 258.581 267.173,259.348 267.581,259.814 267.674 C 260.280 267.767,260.723 268.003,260.797 268.197 C 260.872 268.392,261.397 268.733,261.963 268.955 C 262.530 269.177,262.993 269.464,262.993 269.592 C 262.993 269.720,263.177 269.754,263.403 269.668 C 263.628 269.582,264.254 269.915,264.794 270.408 C 265.334 270.901,265.887 271.236,266.023 271.152 C 266.158 271.068,266.270 271.142,266.270 271.315 C 266.270 271.489,266.530 271.631,266.848 271.631 C 267.167 271.631,267.602 271.878,267.816 272.181 C 268.030 272.483,268.742 272.905,269.397 273.117 C 270.052 273.330,270.967 273.820,271.430 274.205 C 271.893 274.591,272.530 274.907,272.845 274.907 C 273.160 274.907,273.418 275.052,273.418 275.230 C 273.418 275.407,273.585 275.496,273.790 275.427 C 273.995 275.358,274.297 275.484,274.461 275.707 C 274.793 276.157,276.694 275.936,276.694 275.448 C 276.694 275.295,276.822 275.249,276.978 275.345 C 277.234 275.503,277.878 275.093,278.914 274.114 C 279.115 273.924,279.845 273.599,280.536 273.391 C 281.227 273.184,281.915 272.786,282.065 272.506 C 282.214 272.227,282.817 271.908,283.403 271.798 C 283.989 271.688,284.542 271.408,284.631 271.176 C 284.720 270.945,285.249 270.590,285.807 270.388 C 286.364 270.187,286.821 269.900,286.821 269.752 C 286.821 269.604,287.022 269.559,287.267 269.654 C 287.513 269.748,287.714 269.695,287.714 269.536 C 287.714 269.378,287.908 269.248,288.144 269.248 C 288.380 269.248,288.774 268.962,289.018 268.613 C 289.290 268.226,289.645 268.048,289.929 268.157 C 290.185 268.255,290.395 268.215,290.395 268.067 C 290.395 267.920,290.667 267.712,291.000 267.607 C 291.334 267.501,291.836 267.181,292.117 266.896 C 292.398 266.611,293.198 266.214,293.894 266.014 C 294.590 265.814,295.160 265.537,295.160 265.398 C 295.160 265.117,297.266 264.024,297.617 264.122 C 297.740 264.157,297.841 264.047,297.841 263.879 C 297.841 263.712,298.176 263.447,298.585 263.291 C 298.995 263.135,299.330 262.886,299.330 262.736 C 299.330 262.586,299.784 262.379,300.339 262.275 C 300.894 262.170,301.665 261.771,302.052 261.386 C 302.438 261.001,303.190 260.592,303.721 260.476 C 304.253 260.361,304.789 260.109,304.913 259.917 C 305.201 259.471,306.353 258.824,306.860 258.824 C 307.250 258.824,308.167 258.214,309.164 257.290 C 309.455 257.020,310.109 256.708,310.617 256.596 C 311.125 256.485,311.712 256.149,311.921 255.851 C 312.130 255.553,312.834 255.165,313.486 254.989 C 314.138 254.814,314.898 254.406,315.175 254.082 C 315.451 253.759,316.200 253.354,316.839 253.182 C 317.477 253.010,318.242 252.601,318.539 252.272 C 318.837 251.944,319.268 251.675,319.498 251.675 C 319.728 251.675,319.833 251.541,319.732 251.378 C 319.629 251.211,319.856 251.080,320.244 251.080 C 320.627 251.080,321.220 250.883,321.563 250.643 C 321.905 250.403,322.277 250.299,322.389 250.411 C 322.501 250.523,322.515 250.413,322.421 250.166 C 322.293 249.834,322.594 249.626,323.580 249.362 C 324.312 249.166,325.153 248.754,325.449 248.447 C 325.744 248.139,326.372 247.795,326.844 247.681 C 327.315 247.568,328.063 247.113,328.505 246.671 C 328.947 246.229,329.533 245.911,329.807 245.964 C 330.081 246.017,330.305 245.931,330.305 245.773 C 330.305 245.615,330.610 245.409,330.981 245.316 C 331.353 245.222,331.930 244.892,332.264 244.581 C 332.598 244.270,333.399 243.847,334.045 243.641 C 334.691 243.435,335.421 243.042,335.666 242.768 C 335.912 242.493,336.649 242.087,337.305 241.864 C 337.960 241.642,338.671 241.212,338.885 240.909 C 339.099 240.605,339.535 240.357,339.853 240.357 C 340.171 240.357,340.432 240.255,340.432 240.130 C 340.432 240.005,340.968 239.670,341.623 239.386 C 342.278 239.102,342.815 238.765,342.815 238.636 C 342.815 238.508,343.422 238.223,344.163 238.004 C 344.905 237.785,345.639 237.370,345.793 237.080 C 345.948 236.791,346.518 236.472,347.060 236.370 C 347.602 236.268,348.271 235.921,348.547 235.599 C 348.824 235.276,349.418 234.920,349.870 234.807 C 350.321 234.694,351.027 234.288,351.440 233.905 C 351.853 233.522,352.426 233.209,352.715 233.209 C 353.003 233.209,353.239 233.086,353.239 232.935 C 353.239 232.784,353.642 232.572,354.135 232.464 C 354.628 232.356,355.169 232.010,355.337 231.696 C 355.505 231.382,355.906 231.124,356.228 231.124 C 356.550 231.124,356.813 230.990,356.813 230.827 C 356.813 230.663,356.550 230.529,356.228 230.529 C 355.906 230.529,355.505 230.272,355.337 229.957 C 355.169 229.643,354.628 229.297,354.135 229.189 C 353.642 229.081,353.239 228.873,353.239 228.727 C 353.239 228.582,353.049 228.535,352.816 228.625 C 352.577 228.716,352.003 228.377,351.492 227.843 C 350.996 227.324,350.455 226.983,350.290 227.085 C 350.016 227.254,349.375 226.848,348.294 225.819 C 348.068 225.603,347.747 225.511,347.582 225.613 C 347.417 225.715,347.282 225.666,347.282 225.504 C 347.282 225.342,346.981 225.163,346.612 225.107 C 346.243 225.050,345.969 224.858,346.003 224.679 C 346.058 224.387,344.039 223.355,343.241 223.267 C 343.066 223.247,342.688 222.997,342.401 222.711 C 342.114 222.424,341.554 222.108,341.156 222.008 C 340.758 221.908,340.432 221.719,340.432 221.588 C 340.432 221.456,340.210 221.381,339.940 221.421 C 339.669 221.460,339.085 221.114,338.643 220.651 C 338.200 220.188,337.412 219.724,336.890 219.619 C 336.369 219.515,335.780 219.202,335.581 218.923 C 335.382 218.645,334.595 218.206,333.832 217.948 C 333.069 217.690,332.165 217.198,331.822 216.855 C 331.479 216.513,330.998 216.232,330.752 216.232 C 330.506 216.232,330.305 216.083,330.305 215.900 C 330.305 215.717,330.058 215.632,329.756 215.711 C 329.426 215.797,329.069 215.633,328.860 215.299 C 327.827 213.645,327.349 214.570,327.262 218.392 L 327.178 222.040 326.136 222.546 C 325.562 222.824,324.944 223.180,324.762 223.338 C 324.580 223.495,323.910 223.882,323.273 224.197 C 322.636 224.512,321.579 225.082,320.923 225.465 C 320.268 225.848,319.263 226.409,318.690 226.711 C 318.116 227.014,316.977 227.654,316.158 228.135 C 315.339 228.616,314.066 229.326,313.328 229.713 C 312.591 230.100,310.849 231.071,309.456 231.869 C 308.064 232.667,306.322 233.635,305.585 234.019 C 304.847 234.403,303.612 235.081,302.839 235.527 C 302.066 235.972,300.658 236.757,299.711 237.271 C 298.764 237.785,297.185 238.687,296.203 239.275 C 295.220 239.863,293.879 240.596,293.224 240.905 C 292.569 241.214,290.961 242.104,289.650 242.882 C 287.120 244.384,286.221 244.587,285.396 243.841 C 285.115 243.587,284.281 243.091,283.544 242.739 C 281.801 241.909,279.735 240.779,279.284 240.411 C 279.088 240.250,278.086 239.670,277.057 239.121 C 276.028 238.573,274.554 237.760,273.781 237.315 C 273.008 236.870,271.638 236.121,270.737 235.651 C 268.139 234.295,266.199 233.199,265.384 232.627 C 264.970 232.337,264.028 231.807,263.291 231.451 C 262.554 231.094,261.281 230.412,260.462 229.934 C 259.643 229.457,258.506 228.844,257.937 228.574 C 257.367 228.303,256.362 227.724,255.703 227.286 C 255.044 226.849,254.036 226.253,253.462 225.961 C 252.889 225.669,251.750 225.044,250.931 224.573 C 250.112 224.101,248.749 223.385,247.903 222.980 C 245.772 221.961,245.821 222.233,245.856 211.668 C 245.885 202.906,245.790 201.395,245.268 202.240 M146.538 214.398 L 146.538 224.180 143.634 225.763 C 142.036 226.634,139.792 227.896,138.645 228.568 C 137.498 229.240,135.756 230.191,134.773 230.680 C 133.790 231.170,132.919 231.654,132.837 231.754 C 132.755 231.855,132.085 232.242,131.348 232.614 C 130.611 232.985,129.940 233.372,129.859 233.473 C 129.777 233.573,128.838 234.102,127.774 234.647 C 126.709 235.191,125.168 236.028,124.348 236.506 C 123.529 236.984,122.256 237.678,121.519 238.047 C 120.782 238.417,120.112 238.797,120.030 238.891 C 119.948 238.985,118.809 239.647,117.498 240.361 C 116.188 241.075,114.445 242.033,113.626 242.490 C 112.807 242.948,111.634 243.546,111.020 243.821 C 110.406 244.095,109.903 244.417,109.903 244.536 C 109.903 244.654,109.241 245.037,108.431 245.385 C 107.621 245.733,106.876 246.152,106.775 246.315 C 106.541 246.695,105.345 246.701,104.968 246.324 C 104.810 246.165,104.079 245.720,103.345 245.336 C 100.975 244.095,98.448 242.666,97.990 242.308 C 97.744 242.115,96.940 241.702,96.203 241.389 C 95.465 241.077,94.794 240.728,94.712 240.615 C 94.533 240.371,90.635 238.210,88.831 237.355 C 88.135 237.025,87.565 236.628,87.565 236.472 C 87.565 236.315,87.383 236.188,87.160 236.188 C 86.937 236.188,86.300 235.880,85.745 235.503 C 85.190 235.126,84.100 234.557,83.322 234.237 C 82.545 233.918,81.908 233.555,81.907 233.433 C 81.907 233.310,81.759 233.209,81.580 233.209 C 81.400 233.209,80.898 232.959,80.463 232.653 C 80.028 232.347,78.601 231.532,77.292 230.841 C 75.983 230.150,74.843 229.492,74.760 229.379 C 74.677 229.265,74.006 228.908,73.269 228.586 C 72.532 228.264,71.261 227.564,70.446 227.030 C 69.631 226.497,68.876 226.061,68.770 226.061 C 68.663 226.061,67.789 225.587,66.827 225.008 L 65.078 223.955 65.057 218.162 C 65.036 212.319,64.957 211.732,64.266 212.277 C 64.058 212.441,63.518 212.664,63.068 212.772 C 62.617 212.879,62.249 213.099,62.249 213.260 C 62.249 213.420,62.043 213.552,61.793 213.552 C 61.542 213.552,61.263 213.744,61.172 213.980 C 61.082 214.215,60.835 214.341,60.624 214.260 C 60.413 214.179,60.168 214.303,60.079 214.535 C 59.990 214.767,59.536 215.033,59.070 215.126 C 58.604 215.219,57.830 215.632,57.350 216.045 C 56.870 216.457,56.387 216.738,56.276 216.669 C 56.063 216.538,53.299 218.252,52.974 218.717 C 52.870 218.867,52.637 218.898,52.457 218.787 C 52.277 218.676,51.835 218.860,51.474 219.196 C 51.113 219.532,50.635 219.806,50.410 219.806 C 50.186 219.806,50.083 219.937,50.181 220.097 C 50.280 220.256,49.748 220.541,48.998 220.730 C 48.248 220.919,47.504 221.319,47.343 221.618 C 47.183 221.918,46.568 222.254,45.976 222.365 C 45.384 222.476,44.625 222.884,44.288 223.272 C 43.951 223.659,43.431 223.976,43.133 223.976 C 42.835 223.976,42.591 224.121,42.591 224.299 C 42.591 224.476,42.430 224.568,42.233 224.502 C 41.912 224.395,41.431 224.689,40.399 225.623 C 40.212 225.792,39.482 226.118,38.775 226.347 C 38.069 226.576,37.370 226.990,37.222 227.267 C 37.074 227.543,36.533 227.853,36.020 227.956 C 35.506 228.059,34.687 228.479,34.199 228.889 C 33.711 229.299,33.122 229.635,32.889 229.635 C 32.655 229.635,32.465 229.769,32.465 229.933 C 32.465 230.097,32.271 230.231,32.035 230.231 C 31.799 230.231,31.531 230.353,31.439 230.502 C 31.158 230.957,31.594 231.693,32.043 231.520 C 32.275 231.431,32.465 231.480,32.465 231.628 C 32.465 231.777,32.934 232.068,33.507 232.275 C 34.080 232.482,34.550 232.781,34.550 232.938 C 34.550 233.215,35.744 233.791,36.618 233.935 C 36.855 233.974,37.102 234.165,37.167 234.360 C 37.286 234.716,39.272 235.723,39.687 235.638 C 39.810 235.613,40.169 235.827,40.485 236.113 C 41.687 237.204,42.012 237.404,42.297 237.228 C 42.459 237.128,42.591 237.188,42.591 237.361 C 42.591 237.535,42.835 237.677,43.133 237.677 C 43.431 237.677,43.966 238.012,44.323 238.421 C 44.697 238.852,45.290 239.166,45.731 239.166 C 46.150 239.166,46.787 239.485,47.150 239.877 C 47.513 240.268,48.290 240.720,48.877 240.882 C 49.846 241.150,50.583 241.618,51.686 242.665 C 51.902 242.869,52.289 242.955,52.547 242.856 C 52.805 242.757,53.016 242.828,53.016 243.013 C 53.016 243.199,53.351 243.478,53.760 243.634 C 54.170 243.789,54.505 244.048,54.505 244.208 C 54.505 244.369,54.953 244.584,55.500 244.687 C 56.047 244.790,56.877 245.201,57.343 245.602 C 57.810 246.003,58.534 246.410,58.954 246.507 C 59.374 246.604,59.851 246.835,60.015 247.020 C 60.179 247.205,60.715 247.558,61.206 247.803 C 61.698 248.049,62.277 248.418,62.493 248.622 C 62.710 248.827,63.080 248.995,63.316 248.995 C 63.812 248.995,64.926 249.583,65.370 250.079 C 65.537 250.266,66.176 250.577,66.791 250.772 C 67.405 250.967,67.908 251.234,67.908 251.367 C 67.908 251.613,69.488 252.445,70.290 252.620 C 70.536 252.674,70.912 252.952,71.126 253.239 C 71.340 253.526,71.709 253.760,71.945 253.760 C 72.182 253.760,72.375 253.892,72.375 254.052 C 72.375 254.213,72.744 254.435,73.194 254.544 C 73.645 254.654,74.379 255.048,74.825 255.418 C 75.272 255.789,76.076 256.188,76.612 256.306 C 77.149 256.423,77.883 256.836,78.243 257.224 C 78.604 257.612,79.242 257.930,79.660 257.930 C 80.100 257.930,80.694 258.244,81.068 258.675 C 81.424 259.084,81.893 259.419,82.109 259.419 C 82.325 259.419,82.502 259.563,82.502 259.739 C 82.502 259.915,82.736 260.011,83.023 259.954 C 83.544 259.849,83.827 260.003,84.908 260.985 C 85.225 261.273,86.044 261.701,86.727 261.937 C 87.411 262.172,88.083 262.568,88.222 262.816 C 88.361 263.064,88.951 263.357,89.533 263.466 C 90.115 263.575,90.657 263.836,90.738 264.046 C 90.818 264.256,91.277 264.591,91.756 264.789 C 92.236 264.988,92.628 265.283,92.628 265.444 C 92.628 265.605,92.848 265.653,93.117 265.550 C 93.424 265.432,93.762 265.586,94.027 265.965 C 94.259 266.296,94.643 266.567,94.879 266.567 C 95.116 266.567,95.309 266.688,95.309 266.836 C 95.309 266.983,95.812 267.229,96.426 267.381 C 97.040 267.534,97.514 267.802,97.478 267.978 C 97.411 268.305,99.446 269.248,100.219 269.248 C 100.456 269.248,100.790 269.510,100.961 269.831 C 101.135 270.156,101.733 270.500,102.312 270.609 C 102.883 270.716,103.351 270.945,103.351 271.118 C 103.351 271.291,103.429 271.354,103.525 271.258 C 103.683 271.100,104.318 271.522,105.262 272.413 C 105.458 272.598,106.047 272.844,106.572 272.959 C 107.096 273.074,107.657 273.415,107.818 273.716 C 107.979 274.017,108.548 274.358,109.082 274.474 C 109.615 274.590,110.372 275.003,110.763 275.392 C 111.811 276.434,114.127 276.129,115.226 274.804 C 115.451 274.533,115.887 274.311,116.194 274.311 C 116.502 274.311,116.754 274.177,116.754 274.013 C 116.754 273.850,116.854 273.742,116.977 273.775 C 117.291 273.859,119.165 272.653,118.992 272.479 C 118.913 272.400,119.519 272.165,120.338 271.955 C 121.210 271.731,121.952 271.338,122.130 271.006 C 122.297 270.694,122.663 270.435,122.944 270.429 C 123.497 270.417,125.137 269.575,124.646 269.555 C 124.203 269.536,125.987 268.652,126.467 268.652 C 126.694 268.652,126.880 268.533,126.880 268.387 C 126.880 268.241,127.184 268.045,127.556 267.951 C 127.928 267.858,128.526 267.509,128.884 267.175 C 129.242 266.841,129.742 266.567,129.995 266.567 C 130.248 266.567,130.711 266.310,131.025 265.997 C 131.339 265.683,131.684 265.514,131.792 265.622 C 131.900 265.730,132.110 265.600,132.259 265.333 C 132.409 265.066,133.002 264.760,133.577 264.652 C 134.153 264.544,134.624 264.325,134.624 264.166 C 134.624 264.007,135.127 263.645,135.741 263.361 C 136.355 263.077,136.925 262.770,137.007 262.680 C 137.089 262.589,137.658 262.282,138.273 261.996 C 138.887 261.710,139.389 261.348,139.389 261.192 C 139.389 261.036,139.597 260.908,139.851 260.908 C 140.470 260.908,142.165 260.026,142.438 259.562 C 142.559 259.357,143.125 259.102,143.696 258.994 C 144.267 258.887,144.839 258.637,144.966 258.439 C 145.273 257.961,146.416 257.334,146.980 257.334 C 147.228 257.334,147.431 257.216,147.431 257.070 C 147.431 256.925,147.900 256.584,148.474 256.312 C 149.047 256.040,149.516 255.704,149.516 255.566 C 149.516 255.429,149.992 255.226,150.574 255.117 C 151.156 255.008,151.706 254.726,151.797 254.490 C 151.887 254.254,152.067 254.127,152.197 254.207 C 152.326 254.287,152.502 254.169,152.588 253.945 C 152.674 253.721,153.221 253.448,153.803 253.339 C 154.385 253.230,154.965 252.978,155.092 252.780 C 155.365 252.355,156.521 251.675,156.971 251.675 C 157.278 251.675,157.668 251.405,158.715 250.465 C 159.000 250.209,159.382 250.050,159.563 250.110 C 159.745 250.171,160.184 249.978,160.538 249.682 C 160.892 249.386,161.463 248.906,161.805 248.616 C 162.291 248.205,162.482 248.172,162.669 248.467 C 162.853 248.757,162.911 248.760,162.914 248.479 C 162.917 248.278,163.257 248.028,163.671 247.924 C 164.085 247.820,164.556 247.488,164.717 247.186 C 164.879 246.885,165.495 246.547,166.087 246.436 C 166.678 246.325,167.438 245.917,167.775 245.530 C 168.112 245.142,168.564 244.825,168.780 244.825 C 168.997 244.825,169.173 244.704,169.173 244.555 C 169.173 244.407,169.442 244.355,169.769 244.441 C 170.102 244.528,170.365 244.450,170.365 244.264 C 170.365 244.081,170.558 243.931,170.795 243.931 C 171.031 243.931,171.423 243.649,171.664 243.304 C 171.932 242.922,172.248 242.765,172.472 242.903 C 172.685 243.034,172.764 243.007,172.660 242.839 C 172.560 242.678,173.157 242.374,173.987 242.161 C 175.038 241.891,175.372 241.696,175.089 241.517 C 174.706 241.274,174.744 241.229,175.403 241.139 C 175.553 241.119,175.777 241.001,175.900 240.879 C 176.023 240.756,176.349 240.655,176.626 240.655 C 176.902 240.655,177.477 240.332,177.903 239.937 C 178.329 239.542,179.086 239.130,179.585 239.020 C 180.083 238.911,180.491 238.697,180.491 238.547 C 180.491 238.396,180.685 238.273,180.921 238.273 C 181.158 238.273,181.526 238.025,181.740 237.721 C 181.954 237.418,182.364 237.205,182.651 237.248 C 182.937 237.291,183.172 237.204,183.172 237.055 C 183.172 236.905,183.379 236.783,183.633 236.783 C 183.887 236.783,184.389 236.475,184.750 236.097 C 185.111 235.720,186.007 235.236,186.741 235.022 C 187.475 234.808,188.254 234.380,188.470 234.070 C 188.687 233.760,189.116 233.507,189.422 233.507 C 189.729 233.507,190.181 233.306,190.427 233.060 C 190.672 232.815,191.009 232.614,191.176 232.614 C 191.342 232.614,191.686 232.316,191.941 231.952 C 192.251 231.509,192.407 231.435,192.410 231.728 C 192.414 232.109,192.452 232.108,192.703 231.720 C 192.862 231.474,192.996 231.407,193.001 231.571 C 193.006 231.735,193.134 231.672,193.286 231.432 C 193.581 230.967,193.173 230.231,192.620 230.231 C 192.451 230.231,191.873 229.896,191.336 229.486 C 190.799 229.077,190.226 228.742,190.062 228.742 C 189.898 228.742,189.119 228.353,188.330 227.877 C 186.238 226.617,183.817 225.268,182.216 224.470 C 181.445 224.086,180.641 223.636,180.429 223.470 C 180.218 223.305,179.106 222.656,177.960 222.028 C 176.813 221.401,175.339 220.585,174.684 220.216 C 174.028 219.847,172.822 219.201,172.003 218.781 C 171.184 218.361,169.710 217.551,168.727 216.981 C 167.744 216.411,166.151 215.506,165.186 214.971 C 164.221 214.436,162.680 213.574,161.761 213.054 C 160.842 212.535,159.687 211.903,159.196 211.650 C 158.704 211.397,157.699 210.832,156.962 210.393 C 153.457 208.308,151.241 207.080,149.023 205.996 C 148.178 205.584,147.400 205.104,147.293 204.931 C 146.652 203.895,146.538 205.336,146.538 214.398 " stroke="none" fill="#8cdcd4" fill-rule="evenodd"></path></g></svg>